<?xml version="1.0" encoding="UTF-8" standalone="no"?>
<!DOCTYPE svg PUBLIC "-//W3C//DTD SVG 1.1//EN" "http://www.w3.org/Graphics/SVG/1.1/DTD/svg11.dtd">
<svg width="100%" height="100%" viewBox="370 70 630 590" version="1.1" xmlns="http://www.w3.org/2000/svg" xmlns:xlink="http://www.w3.org/1999/xlink" xml:space="preserve" xmlns:serif="http://www.serif.com/" style="fill-rule:evenodd;clip-rule:evenodd;stroke-linejoin:round;stroke-miterlimit:2;">
    <rect id="Artboard1" x="0" y="0" width="1334" height="750" style="fill:none;"/>
    <g id="Artboard11" serif:id="Artboard1">
        <g transform="matrix(1.91307,0,0,1.91307,-1430.64,-906.433)">
            <path d="M977.904,525.615C977.353,526.141 974.376,529.225 976.773,532.413C1011.5,578.617 998.366,605.827 994.636,613.082C987.438,627.083 980.909,636.638 975.802,644.613C971.17,651.847 967.719,657.731 966.098,664.556C963.656,674.84 965.385,687.208 973.133,709.373C973.43,710.222 972.981,711.152 972.132,711.449C971.283,711.746 970.352,711.298 970.055,710.448C961.997,687.394 960.386,674.499 962.926,663.803C964.627,656.642 968.197,650.444 973.057,642.855C978.121,634.947 984.599,625.475 991.737,611.592C995.312,604.637 1007.46,578.658 974.167,534.372C969.743,528.486 975.318,523.389 976.202,522.81L976.86,522.531L977.314,522.505L977.865,522.649L978.328,522.969L978.675,523.467L978.786,523.817L978.814,524.238L978.71,524.719L978.496,525.112C978.337,525.333 978.132,525.502 977.904,525.615ZM975.571,524.441C975.497,524.022 975.586,523.574 975.855,523.201C975.496,523.698 975.499,524.135 975.571,524.441Z"/>
        </g>
        <g transform="matrix(1.91307,0,0,1.91307,-1430.64,-906.433)">
            <path d="M973.624,709.932C973.742,710.011 973.998,710.177 974.214,710.277C974.953,710.617 975.989,710.927 977.268,711.21C988.861,713.778 1019.06,713.721 1038.05,702.791C1045.5,698.505 1050.19,690.812 1053.28,682.853C1058.09,670.483 1059.02,657.407 1059.79,654.372C1061.48,647.758 1065.48,641.688 1070.62,635.877C1078.09,627.451 1087.98,619.548 1096.34,611.136C1106.37,601.036 1114.23,590.235 1112.16,576.65C1110.05,562.797 1097.82,546.298 1068.16,524.915C1043.33,507.025 1002.28,508.408 978.522,524.93C977.783,525.443 976.767,525.261 976.253,524.522C975.74,523.784 975.922,522.767 976.661,522.253C1001.42,505.038 1044.2,503.628 1070.06,522.271C1100.82,544.438 1113.2,561.797 1115.38,576.159C1117.61,590.788 1109.45,602.558 1098.65,613.433C1091.71,620.423 1083.69,627.059 1076.91,633.939C1070.35,640.598 1064.92,647.464 1062.95,655.178C1062.17,658.254 1061.19,671.497 1056.32,684.033C1052.96,692.678 1047.77,700.961 1039.68,705.617C1019.96,716.966 988.602,717.06 976.562,714.393C974.172,713.863 972.475,713.18 971.616,712.511C971.236,712.216 970.968,711.903 970.789,711.599L970.586,711.168L970.466,710.669C970.353,709.776 970.985,708.96 971.878,708.847C972.657,708.748 973.378,709.218 973.624,709.932Z"/>
        </g>
        <g transform="matrix(1.91307,0,0,1.91307,-1430.64,-906.433)">
            <path d="M1021.22,540.942C1023,540.466 1032.82,538.536 1044.02,540.228C1055.34,541.938 1068.03,547.323 1075.42,561.416C1081.66,573.332 1078.62,585.216 1072.23,596.402C1066.09,607.143 1056.86,617.23 1050.44,626.032C1034.15,648.362 1029.47,662.659 1025.88,668.981C1024.38,671.615 1022.91,673.013 1021.23,673.436C1019.57,673.854 1017.52,673.359 1014.72,671.597C1009.22,668.134 1007.66,660.607 1008.66,651.464C1010.83,631.671 1024.47,604.125 1026.54,599.67C1030.25,591.721 1029.75,584.085 1027.69,577.144C1025.55,569.947 1021.77,563.475 1019.05,558.104C1017.5,555.048 1016.29,552.32 1015.81,549.999C1015.39,547.921 1015.54,546.116 1016.35,544.607C1017.15,543.111 1018.63,541.849 1021.09,540.98C1021.13,540.965 1021.17,540.953 1021.22,540.942ZM1022.12,544.076L1022.11,544.078C1020.65,544.601 1019.7,545.256 1019.22,546.15C1018.74,547.043 1018.76,548.119 1019.01,549.348C1019.43,551.437 1020.56,553.879 1021.95,556.631C1024.75,562.152 1028.62,568.818 1030.81,576.217C1033.08,583.869 1033.58,592.284 1029.5,601.047C1027.46,605.416 1014.03,632.408 1011.9,651.819C1011.47,655.804 1011.51,659.455 1012.27,662.486C1012.97,665.243 1014.28,667.465 1016.46,668.837C1018.21,669.939 1019.39,670.536 1020.43,670.275C1021.45,670.018 1022.13,668.968 1023.04,667.37C1026.66,661.001 1031.4,646.608 1047.81,624.111C1054.16,615.395 1063.32,605.42 1069.4,594.784C1075.22,584.593 1078.22,573.787 1072.53,562.93C1065.71,549.933 1053.97,545.028 1043.54,543.452C1033.11,541.876 1023.96,543.603 1022.12,544.076Z"/>
        </g>
        <g transform="matrix(1.91307,0,0,1.91307,-1464.17,-879.472)">
            <path d="M1109.53,656.158C1109.37,656.297 1109.18,656.406 1108.97,656.474C1108.91,656.615 1108.8,656.941 1108.77,657.158C1108.69,657.711 1108.81,658.591 1108.82,658.672C1112.03,665.055 1118.11,667.599 1125.23,668.659C1132.85,669.792 1141.65,669.222 1149.81,669.296C1154.88,669.342 1159.71,669.636 1163.89,670.676C1168.33,671.78 1172.05,673.728 1174.66,676.994C1178.02,681.197 1179.61,687.682 1178.16,697.731L1178.19,697.982C1178.19,698.382 1178.07,699.173 1177.04,700.377C1176.47,701.046 1175.02,701.765 1173.55,702.19C1172.1,702.61 1170.66,702.747 1170.22,702.661C1150.19,698.718 1136.81,701.804 1125.34,703.357C1113.29,704.986 1103.25,704.999 1090.21,694.53C1082.35,688.22 1080.47,678.649 1081.25,669.265C1082.4,655.556 1089.25,642.353 1090.17,641.178C1099.26,629.639 1099.91,630.428 1108.3,618.57C1116.9,606.419 1126.88,600.906 1136.51,599.732C1151.01,597.963 1164.84,606.079 1172.38,616.764C1177.5,624.029 1179.7,632.459 1177.46,639.781C1175.94,644.727 1172.42,649.212 1166.33,652.506C1151.27,660.641 1150.45,657.103 1133.85,653.546C1129.09,652.524 1121.35,653.603 1115.71,654.707C1113.01,655.238 1110.58,655.87 1109.53,656.158ZM1174.72,698.06L1174.69,697.561L1174.79,697.159L1174.96,696.812L1175.01,696.762C1176.16,688.231 1175.01,682.649 1172.12,679.031C1169.94,676.31 1166.8,674.759 1163.1,673.839C1159.15,672.855 1154.58,672.599 1149.78,672.556C1141.47,672.48 1132.51,673.038 1124.75,671.883C1116.5,670.656 1109.59,667.502 1105.89,660.093C1105.54,659.398 1105.29,657.472 1105.69,655.955C1105.91,655.119 1106.31,654.427 1106.85,653.956L1106.97,653.774L1107.39,653.458C1107.82,653.223 1110.93,652.322 1115.09,651.508C1121.13,650.324 1129.43,649.263 1134.53,650.358C1149.99,653.67 1150.76,657.212 1164.78,649.638C1169.98,646.825 1173.05,643.049 1174.34,638.826C1176.31,632.394 1174.22,625.026 1169.71,618.644C1162.81,608.859 1150.18,601.348 1136.91,602.968C1128.02,604.051 1118.89,609.246 1110.96,620.453C1102.52,632.379 1101.87,631.589 1092.74,643.194C1091.87,644.295 1085.58,656.698 1084.5,669.537C1083.81,677.851 1085.29,686.397 1092.25,691.988C1104.37,701.714 1113.71,701.64 1124.9,700.126C1136.63,698.539 1150.3,695.437 1170.75,699.442C1170.91,699.417 1171.91,699.269 1172.64,699.058C1173.13,698.919 1173.61,698.751 1174.03,698.561C1174.25,698.459 1174.46,698.384 1174.56,698.266C1174.62,698.199 1174.67,698.128 1174.72,698.06Z"/>
        </g>
        <g transform="matrix(1.91307,0,0,1.91307,-1464.17,-879.472)">
            <path d="M1129.8,625.798C1135.38,619.195 1144.16,621.066 1149.69,625.176C1151.92,626.839 1153.59,628.857 1154.35,630.746C1154.98,632.306 1155.01,633.812 1154.44,635.101C1154.12,635.821 1153.38,636.573 1152.21,637.162C1150.31,638.119 1147.05,638.798 1143.58,638.824C1135.7,638.883 1127.2,635.53 1129.46,626.456C1129.52,626.214 1129.63,625.989 1129.8,625.798ZM1132.54,627.615L1132.54,627.616C1132.19,629.295 1132.37,630.655 1133,631.734C1133.69,632.917 1134.88,633.743 1136.28,634.335C1138.42,635.238 1141.05,635.583 1143.55,635.564C1146.06,635.546 1148.44,635.161 1150.08,634.539C1150.53,634.368 1150.92,634.183 1151.22,633.977C1151.32,633.905 1151.42,633.862 1151.46,633.78C1151.78,633.055 1151.51,632.197 1151.01,631.309C1150.33,630.085 1149.17,628.857 1147.74,627.791C1143.53,624.66 1136.88,622.845 1132.54,627.615Z"/>
        </g>
        <g transform="matrix(1.91307,0,0,1.91307,-1498.79,-898.168)">
            <path d="M1187.32,603.227C1186.75,602.53 1186.86,601.502 1187.55,600.933C1188.25,600.365 1189.28,600.469 1189.85,601.166C1205.98,620.937 1207.32,632.271 1206.66,643.634C1206.04,654.519 1203.39,665.463 1210.91,684.623C1212.7,689.182 1215.66,691.942 1219.01,693.184C1226.75,696.059 1236.39,690.945 1237.11,682.095C1240.48,640.591 1256.22,624.923 1264.44,612.535C1266.98,608.709 1268.78,605.238 1269.08,601.31C1269.38,597.382 1268.15,593.034 1264.84,587.454C1264.38,586.68 1264.64,585.679 1265.41,585.22C1266.19,584.761 1267.19,585.016 1267.65,585.79C1271.41,592.124 1272.67,597.098 1272.33,601.557C1271.99,606.015 1270.04,609.994 1267.16,614.337C1259.12,626.456 1243.66,641.758 1240.36,682.359C1239.47,693.376 1227.5,699.819 1217.87,696.24C1213.77,694.717 1210.07,691.402 1207.87,685.814C1201.63,669.901 1202.11,659.45 1202.89,650.12C1204,636.741 1205.72,625.783 1187.32,603.227Z"/>
        </g>
        <g transform="matrix(1.91307,0,0,1.91307,-1498.79,-898.168)">
            <path d="M1228.25,635.295C1228.34,635.264 1228.46,635.213 1228.55,635.162C1229.05,634.862 1229.62,634.333 1230.29,633.577C1232.2,631.438 1233.84,626.088 1235.66,619.626C1238.54,609.364 1241.66,596.379 1245.95,587.916C1248.59,582.711 1251.79,579.202 1255.43,578.469C1259.09,577.732 1263.52,579.651 1268.56,586.188C1269.11,586.901 1268.98,587.925 1268.27,588.474C1267.55,589.024 1266.53,588.891 1265.98,588.179C1263.9,585.48 1262,583.656 1260.22,582.602C1258.72,581.712 1257.35,581.408 1256.07,581.665C1254.75,581.932 1253.56,582.768 1252.44,583.972C1251.14,585.357 1249.96,587.215 1248.86,589.39C1243.94,599.099 1240.63,614.876 1237.37,625.374C1235.87,630.198 1234.32,633.956 1232.73,635.747C1231.54,637.073 1230.53,637.858 1229.69,638.235C1228.82,638.633 1228.04,638.666 1227.36,638.477C1226.45,638.223 1225.61,637.509 1225.01,636.226C1224.44,634.998 1224.03,633.106 1223.72,630.745C1222.81,623.842 1222.62,612.553 1219.59,603.239C1216.76,594.538 1211.34,587.598 1199.92,588.517C1194.3,588.969 1191.46,590.02 1190.18,591.758C1189.32,592.918 1189.29,594.333 1189.39,595.848C1189.53,597.798 1189.95,599.897 1189.99,601.985C1190.01,602.884 1189.29,603.629 1188.39,603.646C1187.49,603.664 1186.75,602.948 1186.73,602.048C1186.68,599.564 1186.09,597.065 1186.09,594.824C1186.1,592.977 1186.47,591.285 1187.55,589.822C1189.17,587.632 1192.57,585.837 1199.66,585.267C1212.95,584.197 1219.39,592.1 1222.69,602.229C1225.79,611.743 1226.02,623.268 1226.95,630.319C1227.13,631.719 1227.34,632.93 1227.62,633.89C1227.78,634.447 1228.14,635.1 1228.25,635.295Z"/>
        </g>
        <g transform="matrix(1.91307,0,0,1.91307,-683.946,65.3732)">
            <path d="M749.066,228.612C749.021,228.336 749.202,228.071 749.479,228.015C751.604,227.588 752.69,228.09 753.131,228.853C753.544,229.568 753.432,230.64 752.935,231.741C752.267,233.22 750.95,234.761 749.825,235.42C749.647,235.524 749.08,235.654 748.507,235.48C747.89,235.292 747.236,234.798 747.174,233.595C747.125,232.651 747.489,231.159 748.767,228.856C748.834,228.735 748.943,228.651 749.066,228.612ZM749.74,229.029C749.758,229.14 749.74,229.258 749.681,229.363C748.702,231.129 748.29,232.35 748.224,233.196C748.175,233.825 748.321,234.187 748.578,234.368C748.829,234.545 749.267,234.508 749.322,234.503C750.293,233.923 751.407,232.584 751.982,231.311C752.165,230.905 752.293,230.506 752.334,230.141C752.367,229.851 752.347,229.586 752.225,229.375C752.104,229.166 751.879,229.029 751.549,228.956C751.107,228.859 750.514,228.878 749.74,229.029Z"/>
        </g>
        <g transform="matrix(1.91307,0,0,1.91307,-683.946,65.3732)">
            <path d="M759.734,234.481C759.981,234.202 760.243,233.659 760.413,232.999C760.824,231.401 760.648,229.102 758.094,227.935C757.832,227.815 757.716,227.505 757.836,227.243C757.956,226.98 758.266,226.864 758.528,226.984C761.698,228.432 761.936,231.277 761.426,233.26C761.202,234.127 760.829,234.827 760.505,235.188C760.342,235.37 759.812,235.695 759.166,235.696C758.485,235.699 757.643,235.387 757.102,234.103C756.661,233.057 756.416,231.255 756.734,228.227C756.764,227.94 757.021,227.731 757.308,227.761C757.595,227.792 757.804,228.049 757.774,228.336C757.564,230.334 757.603,231.756 757.794,232.757C757.96,233.628 758.228,234.146 758.554,234.423C758.857,234.681 759.198,234.68 759.449,234.611C759.571,234.577 759.717,234.492 759.734,234.481Z"/>
        </g>
        <g transform="matrix(1.91307,0,0,1.91307,-683.946,65.3732)">
            <path d="M751.985,228.763C751.801,228.985 751.471,229.016 751.249,228.832C751.027,228.648 750.996,228.318 751.18,228.096C754.493,224.1 754.428,223.497 760.067,214.962C760.226,214.722 760.55,214.655 760.791,214.814C761.032,214.973 761.098,215.298 760.939,215.539C755.26,224.135 755.321,224.739 751.985,228.763Z"/>
        </g>
        <g transform="matrix(1.91307,0,0,1.91307,-683.946,65.3732)">
            <path d="M756.691,227.605L756.618,227.357C756.157,225.803 753.801,217.881 753.288,214.766C753.242,214.482 753.435,214.212 753.719,214.166C754.004,214.119 754.273,214.312 754.32,214.596C754.828,217.68 757.163,225.521 757.62,227.059L757.702,227.336L757.719,227.5L757.69,227.649L757.616,227.786L757.449,227.932L757.278,227.99C757.01,228.032 756.758,227.862 756.691,227.605ZM756.678,227.534C756.665,227.427 756.686,227.323 756.733,227.234C756.807,227.091 756.945,226.984 757.116,226.957C756.973,226.98 756.828,227.05 756.733,227.234C756.714,227.271 756.658,227.368 756.678,227.534Z"/>
        </g>
        <g transform="matrix(1.91307,0,0,1.91307,-490.592,-125.091)">
            <path d="M681.466,327.987C681.052,327.911 681.035,327.897 680.796,327.551C680.644,327.331 680.639,327.035 680.621,326.769C680.589,326.327 681.134,326.113 682.17,312.54C682.722,305.3 683.22,296.761 683.222,296.757C683.325,296.546 683.358,296.283 683.533,296.127C683.539,296.121 684.195,295.891 684.199,295.893C684.843,296.202 685.033,296.144 685.063,296.859C685.063,296.862 684.8,301.984 684.522,306.661C683.613,321.982 683.058,325.066 682.69,327.141C682.615,327.567 682.305,327.781 682.252,327.817C681.904,328.058 681.883,328.064 681.466,327.987Z"/>
        </g>
        <g transform="matrix(1.91307,0,0,1.91307,-490.592,-125.091)">
            <path d="M696.172,301.088C696.366,301.443 696.367,301.464 696.254,301.852C696.111,302.341 696.036,302.31 695.588,302.552C691.919,304.534 681.148,309.926 675.833,308.236C675.438,308.11 674.268,307.733 673.436,306.594C672.98,305.969 673.186,305.883 673.603,305.229C673.606,305.225 674.289,305.073 674.297,305.074C674.868,305.174 674.751,305.37 675.169,305.77C677.959,308.442 687.447,304.751 694.809,300.689C695.17,300.49 695.514,300.59 695.572,300.608C695.96,300.721 695.977,300.734 696.172,301.088Z"/>
        </g>
        <g transform="matrix(1.91307,0,0,1.91307,-495.637,-127.77)">
            <path d="M695.193,330.798C695.132,330.921 695.096,330.992 695.087,331.005C694.563,331.749 693.37,331.253 693.529,330.357C693.642,329.713 695.541,325.439 697.112,319.635C699.13,312.179 702.296,296.352 702.34,296.287C702.443,296.136 702.499,295.935 702.652,295.834C702.659,295.829 703.196,295.726 703.199,295.729C703.668,296.044 703.83,296.019 703.76,296.578C703.76,296.579 702.716,301.792 701.852,305.969C700.214,313.893 699.224,318.201 698.306,321.48C700.881,317.433 703.967,313.75 706.935,313.163C709.222,312.712 711.21,314.196 711.771,316.069C712.964,320.049 708.881,326.737 708.611,330.435C708.545,331.341 708.3,331.262 707.444,331.562C707.44,331.564 706.682,331.201 706.676,331.194C706.298,330.773 706.359,330.722 706.412,330.157C706.816,325.86 711.647,318.029 709.312,315.779C708.915,315.397 707.173,313.388 702.761,318.543C699.067,322.859 695.817,329.538 695.193,330.798Z"/>
        </g>
        <g transform="matrix(1.91307,0,0,1.91307,-496.296,-125.062)">
            <path d="M727.548,311.134C724.367,310.846 720.706,313.773 718.735,316.277C716.388,319.258 715.471,322.585 716.758,325.107C717.883,327.309 720.921,332.253 729.825,326.715C731.726,325.532 733.266,324.185 733.545,323.941C733.907,323.624 733.905,323.553 734.387,323.584C734.396,323.584 735.062,323.913 735.064,323.917C735.144,324.152 735.317,324.376 735.301,324.623C735.27,325.108 735.2,325.099 734.834,325.418C728.809,330.649 719.553,334.919 715.077,325.946C711.434,318.644 721.541,308.509 727.839,309.358C729.237,309.546 732.75,313.035 726.143,317.257C723.995,318.629 721.448,319.659 720.523,320.034C720.473,320.054 720.188,320.169 719.853,320.027C719.845,320.023 719.383,319.551 719.383,319.546C719.385,319.325 719.306,319.087 719.392,318.884C719.591,318.416 719.687,318.49 720.157,318.297C728.639,314.802 728.996,312.026 727.606,311.165C727.575,311.146 727.571,311.145 727.548,311.134Z"/>
        </g>
        <g transform="matrix(1.91307,0,0,1.91307,-536.609,-82.1592)">
            <path d="M493.93,305.363L495.023,304.681C494.68,305.318 494.099,305.363 493.93,305.363ZM492.669,303.636C492.689,303.594 492.712,303.559 492.738,303.53L492.716,303.495L492.741,303.45L492.77,303.5C492.997,303.32 493.411,303.65 493.883,305.361C493.883,305.361 493.9,305.362 493.93,305.363L493.857,305.408C493.141,305.408 492.56,304.827 492.56,304.111C492.56,303.926 492.599,303.75 492.669,303.636Z"/>
        </g>
        <g transform="matrix(1.91307,0,0,1.91307,-536.609,-82.1592)">
            <path d="M507.512,319.143C507.362,318.998 506.963,318.626 506.572,318.346C504.651,316.972 501.09,314.832 496.607,309.729C496.062,309.109 495.005,308.712 494.194,308.11C492.898,307.147 492.008,305.889 492.571,303.785C493.444,300.523 496.163,299.175 499.054,297.697C507.649,293.303 520.621,292.27 524.039,292.931C528.889,293.869 531.749,295.844 533.288,298.287C535.579,301.922 534.962,306.767 533.129,311.404C530.68,317.597 526.169,323.4 524.94,324.942C525.08,326.679 525.62,327.985 526.531,328.946C527.551,330.023 529.001,330.665 530.734,331.076C533.32,331.69 536.502,331.773 539.975,331.734C546.806,331.657 554.713,331.104 561.601,332.69C568.815,334.351 574.95,338.286 577.831,347.25C581.466,358.563 580.083,365.178 576.646,368.907C573.389,372.442 568.148,373.507 562.94,373.39C555.614,373.226 548.419,370.784 547.938,370.703C531.453,367.922 519.723,371.533 509.208,374.364C501.928,376.324 495.207,377.908 487.964,376.981C482.407,376.269 478.603,375.071 476.142,373.581C474.302,372.467 473.159,371.17 472.537,369.779C471.048,366.449 472.6,362.364 475.684,358.316C479.567,353.218 485.759,348.069 489.474,344.536C490.854,343.224 491.891,342.215 492.153,341.527C496.781,329.36 497.031,329.657 506.52,320.321C506.841,320.005 507.099,319.73 507.293,319.483C507.375,319.378 507.461,319.233 507.512,319.143ZM495.077,304.455C494.804,305.476 495.536,305.921 496.212,306.346C497.088,306.896 498.008,307.394 498.556,308.017C503.767,313.95 507.706,315.733 509.141,317.079C509.849,317.742 510.14,318.393 510.149,319.069C510.159,319.837 509.702,320.829 508.339,322.17C499.26,331.102 499.005,330.808 494.577,342.449C494.242,343.331 493.032,344.732 491.261,346.416C487.625,349.874 481.548,354.897 477.747,359.887C476.47,361.564 475.454,363.228 474.923,364.825C474.462,366.208 474.371,367.526 474.905,368.72C475.466,369.975 476.681,371.055 478.654,371.985C480.892,373.041 484.038,373.863 488.293,374.408C495.196,375.292 501.595,373.728 508.534,371.859C519.347,368.948 531.416,365.285 548.37,368.145C548.839,368.224 555.851,370.637 562.998,370.797C567.438,370.896 571.962,370.163 574.739,367.15C577.768,363.863 578.565,358.014 575.361,348.044C572.819,340.133 567.385,336.684 561.019,335.218C554.326,333.676 546.641,334.253 540.004,334.327C536.294,334.369 532.897,334.255 530.135,333.6C527.857,333.059 525.989,332.145 524.648,330.729C523.277,329.282 522.426,327.304 522.32,324.574L522.388,324.106L522.535,323.806C522.549,323.784 522.625,323.682 522.762,323.513C523.658,322.396 528.273,316.631 530.717,310.45C532.225,306.637 532.977,302.659 531.094,299.67C529.85,297.697 527.464,296.235 523.547,295.478C520.356,294.861 508.259,295.904 500.234,300.006C499.254,300.507 498.28,300.972 497.42,301.529C496.343,302.226 495.447,303.071 495.077,304.455Z"/>
        </g>
        <g transform="matrix(1.91307,0,0,1.91307,-536.609,-82.1592)">
            <path d="M510.111,306.078C509.71,305.485 509.866,304.678 510.459,304.277C511.052,303.876 511.859,304.032 512.26,304.625L516.681,311.165C517.082,311.758 516.926,312.565 516.333,312.965C515.74,313.366 514.933,313.21 514.532,312.617L510.111,306.078Z"/>
        </g>
        <g transform="matrix(1.91307,0,0,1.91307,-536.609,-82.1592)">
            <path d="M521.034,303.935C520.982,303.921 520.851,303.887 520.762,303.877C520.396,303.836 519.952,303.863 519.467,303.924C516.807,304.258 513.081,305.659 512.661,305.848C512.008,306.142 511.24,305.851 510.946,305.198C510.653,304.545 510.944,303.777 511.597,303.483C512.063,303.273 516.194,301.721 519.143,301.35C520.025,301.239 520.816,301.236 521.421,301.357C522.057,301.484 522.541,301.752 522.871,302.099C524.282,303.589 524.142,305.333 523.023,307.09C521.807,308.999 519.268,310.953 517.502,312.305C516.934,312.74 516.12,312.632 515.684,312.064C515.249,311.495 515.357,310.681 515.925,310.246C517.481,309.054 519.764,307.379 520.835,305.697C521.23,305.076 521.486,304.466 521.034,303.935Z"/>
        </g>
        <g transform="matrix(1.91307,0,0,1.91307,-536.609,-82.1592)">
            <path d="M507.598,352.753C527.795,341.106 532.662,338.476 546.578,343.993C550.129,345.401 552.363,346.88 553.671,348.262C554.702,349.351 555.209,350.42 555.375,351.396C555.708,353.354 554.723,355.06 553.163,356.168C551.726,357.188 549.818,357.661 548.266,357.384C531.18,354.339 525.861,352.951 508.409,355.163C507.796,355.241 507.213,354.876 507.016,354.29C506.82,353.705 507.063,353.062 507.598,352.753ZM514.27,351.907C527.435,350.713 533.497,352.117 548.722,354.831C549.657,354.997 550.796,354.668 551.661,354.053C552.404,353.525 552.977,352.764 552.818,351.831C552.693,351.095 552.169,350.321 551.2,349.488C550.011,348.467 548.208,347.429 545.622,346.404C533.815,341.724 528.968,343.516 514.27,351.907Z"/>
        </g>
        <g transform="matrix(1.91307,0,0,1.91307,-552.606,-77.2218)">
            <path d="M579.862,303.96C580.641,305.758 584.577,313.476 585.258,319.592C585.608,322.73 585.071,325.469 583.259,327.114C582.031,328.229 580.185,328.907 577.482,328.77C572.671,328.526 571.587,324.955 570.876,321.475C570.656,320.397 570.471,319.348 570.116,318.516C569.945,318.117 569.748,317.771 569.413,317.576C569.061,317.373 568.591,317.358 567.963,317.474C565.698,317.892 564.55,318.987 563.035,320.037C560.403,321.86 556.882,323.74 546.806,322.987C546.167,322.94 545.671,322.436 545.612,321.819C545.197,321.483 545.017,320.911 545.204,320.379C546.709,316.107 547.484,313.962 548.801,312.213C550.119,310.462 551.987,309.095 555.778,306.456C556.674,305.833 562.949,298.002 568.612,293.818C570.487,292.433 572.315,291.437 573.889,291.099C575.203,290.817 576.377,290.963 577.357,291.563C578.289,292.134 579.084,293.144 579.572,294.781C580.15,296.719 580.321,299.682 579.862,303.96ZM547.924,320.463C557.719,321.054 560.217,318.848 562.748,317.057C564.068,316.123 565.404,315.309 567.492,314.924C569,314.646 570.077,314.908 570.886,315.439C572.001,316.171 572.639,317.538 573.043,319.205C573.35,320.475 573.549,321.933 573.985,323.24C574.498,324.772 575.397,326.068 577.614,326.18C579.424,326.272 580.693,325.94 581.516,325.193C582.782,324.044 582.925,322.073 582.681,319.88C582.103,314.695 579.022,308.315 577.843,305.782C577.566,305.188 577.383,304.772 577.324,304.587L577.255,304.286L577.252,303.962C577.627,300.634 577.622,298.171 577.297,296.41C577.045,295.047 576.658,294.176 576.003,293.775C575.413,293.414 574.673,293.519 573.845,293.799C572.705,294.185 571.45,294.946 570.154,295.904C564.468,300.105 558.159,307.96 557.26,308.585C553.811,310.986 552.072,312.18 550.873,313.773C549.755,315.258 549.114,317.076 547.924,320.463Z"/>
        </g>
        <g transform="matrix(1.91307,0,0,1.91307,-552.606,-77.2218)">
            <path d="M565.297,310.617C564.755,311.084 563.935,311.023 563.468,310.48C563.001,309.938 563.062,309.119 563.605,308.651C566.442,306.209 566.141,306.265 568.427,303.394C568.872,302.834 569.689,302.742 570.249,303.187C570.809,303.633 570.902,304.45 570.456,305.01C568.014,308.076 568.327,308.008 565.297,310.617Z"/>
        </g>
        <g transform="matrix(1.91307,0,0,1.91307,-552.606,-77.2218)">
            <path d="M565.902,311.429C565.227,311.666 564.486,311.309 564.25,310.634C564.013,309.958 564.369,309.218 565.045,308.981L569.91,307.276C570.586,307.04 571.326,307.396 571.563,308.071C571.799,308.747 571.443,309.487 570.768,309.724L565.902,311.429Z"/>
        </g>
        <g transform="matrix(1.91307,0,0,1.91307,-536.609,-82.1592)">
            <path d="M584.597,297.656C584.614,297.603 584.633,297.545 584.657,297.484C584.919,296.791 585.758,295.311 587.901,294.458C590.086,293.588 588.462,293.923 590.194,293.875C596.775,293.692 602.361,293.457 606.951,293.943C611.845,294.461 615.653,295.81 618.422,298.715C622.005,302.474 623.884,308.981 623.797,320.227C623.768,323.91 622.711,325.941 621.272,327.108C619.836,328.273 617.921,328.602 615.898,328.661C614.249,328.709 612.527,328.578 611.068,328.87C609.985,329.087 609.077,329.581 608.631,330.829C607.326,334.48 609.093,337.663 611.623,340.248C615.844,344.561 622.252,347.27 622.939,347.688C630.423,352.237 634.455,359.969 635.003,366.43C635.395,371.043 634,375.012 631.037,377.022L630.538,377.252L630.068,377.32C629.775,377.326 629.408,377.263 628.983,377.096C627.401,376.476 624.23,373.891 620.426,371.307C617.751,369.489 614.738,367.676 611.741,366.687C607.644,365.334 603.573,365.593 600.688,370.036C597.942,374.265 595.402,376.689 593.218,377.852C591.529,378.751 590,378.947 588.672,378.68C586.681,378.28 585.08,376.809 584.062,374.715C582.694,371.903 582.388,367.948 583.466,364.535C587.295,352.421 588.88,352.508 586.672,340.141C585.961,336.157 587.727,332.314 589.338,327.825C591.525,321.726 593.188,314.276 585.788,302.948C585.447,302.427 585.07,302.05 584.791,301.654C584.491,301.228 584.274,300.784 584.177,300.257C584.058,299.614 584.112,298.803 584.597,297.656ZM587.23,298.185C587.102,298.634 586.967,298.872 586.903,298.963L586.832,299.031C586.725,299.334 586.688,299.573 586.727,299.785C586.78,300.07 586.979,300.261 587.17,300.494C587.422,300.803 587.698,301.131 587.959,301.53C596.04,313.898 594.168,322.041 591.779,328.701C590.338,332.718 588.589,336.12 589.226,339.685C591.545,352.674 589.961,352.593 585.939,365.317C585.064,368.087 585.284,371.298 586.394,373.581C587.028,374.884 587.945,375.888 589.184,376.138C590.251,376.352 591.493,375.994 592.915,374.996C594.61,373.806 596.48,371.755 598.513,368.624C601.598,363.872 605.726,362.803 610.058,363.581C614.061,364.301 618.269,366.705 621.884,369.161C624.647,371.039 627.055,372.932 628.734,374.015C629.141,374.277 629.634,374.522 629.895,374.645C631.939,373.032 632.706,370.031 632.419,366.65C631.928,360.869 628.287,353.974 621.591,349.904C620.872,349.467 614.191,346.58 609.769,342.062C606.538,338.76 604.521,334.62 606.188,329.955C607.403,326.559 610.431,326.101 613.772,326.084C614.96,326.078 616.18,326.111 617.307,325.959C618.222,325.836 619.075,325.597 619.739,325.008C620.683,324.171 621.184,322.693 621.203,320.207C621.282,309.939 619.816,303.937 616.545,300.505C614.173,298.017 610.869,296.966 606.678,296.522C602.183,296.047 596.712,296.289 590.266,296.468C590.066,296.473 589.895,296.473 589.761,296.469C589.565,296.568 589.269,296.705 588.861,296.868C588.021,297.202 587.478,297.838 587.23,298.185Z"/>
        </g>
        <g transform="matrix(1.91307,0,0,1.91307,-536.609,-82.1592)">
            <path d="M600.69,306.83C600.549,306.128 601.005,305.444 601.707,305.304C602.409,305.163 603.093,305.619 603.233,306.321L604.831,314.301C604.971,315.002 604.516,315.686 603.814,315.827C603.112,315.967 602.428,315.512 602.288,314.81L600.69,306.83Z"/>
        </g>
        <g transform="matrix(1.91307,0,0,1.91307,-536.609,-82.1592)">
            <path d="M602.663,307.328C602.128,307.804 601.308,307.757 600.832,307.223C600.355,306.689 600.402,305.868 600.936,305.392C603.223,303.353 606.59,303.613 609.329,305.257C611.993,306.857 613.952,309.72 613.727,312.561C613.658,313.436 613.153,314.609 612.266,315.645C611.079,317.031 609.239,318.157 607.163,318.079C605.79,318.028 604.285,317.465 602.796,316.012C602.284,315.512 602.274,314.69 602.774,314.178C603.274,313.666 604.096,313.656 604.608,314.155C605.523,315.048 606.417,315.456 607.261,315.487C608.509,315.534 609.583,314.79 610.297,313.957C610.767,313.408 611.105,312.82 611.141,312.356C611.295,310.422 609.807,308.57 607.993,307.481C606.253,306.436 604.115,306.033 602.663,307.328Z"/>
        </g>
        <g transform="matrix(1.91131,0,0,1.89952,-564.915,-127.33)">
            <path d="M648.231,319.668C649.478,317.875 650.538,317.288 651.687,316.735C659.434,313.002 665.217,313.105 669.347,315.127C675.599,318.19 678.223,325.814 678.136,332.347C678.099,335.153 677.567,337.745 676.659,339.675C675.974,341.131 675.064,342.229 674.016,342.863C671.529,344.368 669.91,345.636 668.997,346.742C668.417,347.443 668.129,347.978 668.307,348.476C668.426,348.812 668.719,349.08 669.087,349.342C669.623,349.725 670.317,350.052 671.111,350.351C675.676,352.071 683.189,352.755 686.097,353.961C687.775,354.657 689.58,356.41 691.193,358.802C693.441,362.134 695.379,366.706 696.273,370.924C696.896,373.86 697.003,376.631 696.433,378.744C695.989,380.389 695.142,381.669 693.883,382.46C692.589,383.274 690.81,383.595 688.44,383.079C685.401,382.416 681.221,380.316 675.67,376.127C673.964,374.84 671.513,374.616 668.758,374.743C664.119,374.958 658.674,376.261 653.976,376.555C648.04,376.926 643.274,375.656 641.863,369.928C639.525,360.433 641.566,355.8 643.883,349.904C646.057,344.369 648.456,337.646 647.191,323.981C647.063,322.596 647.13,321.25 648.231,319.668ZM650.357,321.166C649.703,322.106 649.7,322.915 649.776,323.739C651.1,338.039 648.573,345.072 646.297,350.864C644.164,356.294 642.23,360.555 644.383,369.3C645.16,372.455 647.416,373.62 650.314,373.918C652.537,374.147 655.111,373.893 657.778,373.523C662.01,372.937 666.467,372.059 670.229,372.104C673.008,372.137 675.431,372.682 677.227,374.037C682.356,377.907 686.182,379.914 688.989,380.526C690.516,380.858 691.674,380.769 692.508,380.245C693.451,379.652 693.907,378.542 694.105,377.189C694.347,375.542 694.177,373.555 693.734,371.469C692.908,367.573 691.121,363.347 689.045,360.269C687.774,358.385 686.429,356.925 685.108,356.376C682.215,355.176 674.741,354.508 670.2,352.798C668.59,352.191 667.316,351.435 666.569,350.558C665.907,349.78 665.594,348.9 665.679,347.914C665.75,347.077 666.134,346.121 667,345.072C668.039,343.815 669.85,342.336 672.678,340.624C673.345,340.221 673.877,339.484 674.312,338.558C675.085,336.914 675.509,334.701 675.541,332.312C675.614,326.721 673.562,320.097 668.211,317.476C664.604,315.71 659.574,315.831 652.808,319.091C651.994,319.483 651.241,319.896 650.357,321.166Z"/>
        </g>
        <g transform="matrix(1.91131,0,0,1.89952,-564.915,-127.33)">
            <path d="M655.672,329.409C655.51,328.706 655.946,328.004 656.644,327.842C657.342,327.679 658.039,328.117 658.201,328.82C658.625,330.663 659.433,332.809 659.857,334.652C660.018,335.354 659.583,336.056 658.885,336.219C658.187,336.381 657.489,335.943 657.328,335.241C656.904,333.398 656.096,331.252 655.672,329.409Z"/>
        </g>
        <g transform="matrix(1.91307,0,0,1.91307,-536.609,-82.1592)">
            <path d="M644.625,310.7C644.04,311.111 643.23,310.969 642.819,310.383C642.408,309.797 642.55,308.988 643.136,308.577C645.964,306.592 646.627,305.735 649.813,304.539C650.483,304.288 651.231,304.627 651.483,305.298C651.734,305.968 651.394,306.716 650.724,306.967C647.805,308.063 647.217,308.881 644.625,310.7Z"/>
        </g>
        <g transform="matrix(1.91131,0,0,1.89952,-564.915,-127.33)">
            <path d="M658.447,330.066C658.113,330.436 657.581,330.595 657.079,330.428C656.399,330.203 656.028,329.464 656.253,328.779L656.389,328.483L656.583,328.229L657.154,327.794C657.984,327.311 660.105,326.527 662.105,326.339C663.907,326.17 665.583,326.55 666.497,327.604C667.156,328.366 667.538,329.508 667.193,331.21C667.05,331.917 666.363,332.373 665.662,332.229C664.96,332.085 664.506,331.394 664.649,330.688C664.778,330.052 664.786,329.605 664.54,329.321C664.375,329.131 664.123,329.047 663.846,328.987C663.394,328.889 662.876,328.89 662.346,328.94C660.786,329.087 658.761,329.931 658.447,330.066Z"/>
        </g>
        <g transform="matrix(1.91131,0,0,1.89952,-564.915,-127.33)">
            <path d="M658.976,359.113C659.137,358.411 659.835,357.973 660.533,358.135C661.231,358.298 661.666,359 661.505,359.702L660.637,363.479C660.475,364.182 659.777,364.62 659.079,364.457C658.381,364.295 657.946,363.593 658.107,362.89L658.976,359.113Z"/>
        </g>
        <g transform="matrix(1.91131,0,0,1.89952,-564.915,-127.33)">
            <path d="M660.776,359.76C660.063,359.687 659.543,359.046 659.616,358.329C659.688,357.612 660.325,357.089 661.038,357.161C666.529,357.722 669.216,358.439 671.026,359.675C672.846,360.918 673.813,362.716 675.74,365.643C675.984,366.014 676.024,366.485 675.845,366.892C675.667,367.299 675.294,367.586 674.857,367.655C668.694,368.62 665.113,366.605 659.094,364.855C658.405,364.655 658.008,363.931 658.207,363.238C658.406,362.546 659.126,362.146 659.814,362.346C664.719,363.771 667.867,365.481 672.425,365.28C671.454,363.734 670.737,362.635 669.568,361.837C667.98,360.752 665.592,360.252 660.776,359.76Z"/>
        </g>
        <g transform="matrix(1.91307,0,0,1.91307,-577.51,-92.843)">
            <path d="M726.12,349.091C723.217,352.055 721.483,354.375 720.632,356.182C720.171,357.16 719.978,357.935 720.069,358.555C720.142,359.053 720.456,359.38 720.884,359.597C721.537,359.928 722.401,360.04 723.333,360.03C725.229,360.01 727.396,359.446 728.969,358.625C729.788,358.196 730.465,357.753 730.67,357.213C731.995,353.727 736.16,353.203 740.094,354.566C742.236,355.309 744.265,356.568 745.559,357.971C746.584,359.082 747.157,360.304 747.174,361.458C747.19,362.56 746.748,363.654 745.598,364.606C744.303,365.679 741.913,366.621 737.985,367.08C731.817,367.8 726.773,371.522 721.705,374.976C716.236,378.704 710.741,382.129 704.091,381.974C701.688,381.918 700.233,381.211 699.419,380.186C698.877,379.503 698.582,378.651 698.538,377.632C698.485,376.424 698.803,374.928 699.406,373.205C701.144,368.238 705.309,361.103 707.746,353.321C710.072,345.893 710.824,337.843 705.898,330.639C705.772,330.455 705.573,330.324 705.373,330.188C705.015,329.946 704.63,329.721 704.294,329.47C703.667,329.001 703.195,328.437 702.999,327.715C702.864,327.218 702.85,326.634 703.072,325.924C703.613,324.2 705.163,323.155 706.145,322.539C711.324,319.291 715.138,317.735 717.911,317.23C720.011,316.847 721.59,317.048 722.767,317.552C725.13,318.565 726.054,320.822 726.202,323.016C726.346,325.152 725.707,327.159 725.298,327.704C722.359,331.622 720.612,334.704 720.289,336.804C720.172,337.565 720.241,338.137 720.804,338.377C721.554,338.696 722.511,338.663 723.562,338.536C725.511,338.301 727.73,337.678 729.781,337.377C732.559,336.97 735.044,337.221 736.575,338.953C737.613,340.127 737.883,341.233 737.736,342.217C737.537,343.547 736.44,344.786 734.793,345.764C731.939,347.459 727.387,348.522 726.12,349.091ZM723.206,326.171C723.221,326.132 723.345,325.824 723.408,325.572C723.566,324.943 723.674,324.081 723.614,323.191C723.543,322.129 723.253,320.998 722.365,320.301C721.403,319.545 719.843,319.368 717.42,319.993C714.953,320.63 711.731,322.097 707.524,324.736C706.925,325.112 705.877,325.65 705.547,326.7C705.381,327.231 705.832,327.395 706.181,327.622C706.881,328.078 707.607,328.544 708.039,329.175C712.696,335.985 712.853,343.468 711.175,350.628C709.557,357.531 706.222,364.119 703.8,369.411C702.577,372.081 701.588,374.399 701.244,376.233C701.058,377.22 701.013,378.022 701.45,378.573C701.909,379.151 702.797,379.35 704.151,379.381C710.248,379.523 715.231,376.25 720.244,372.833C725.657,369.143 731.096,365.273 737.684,364.504C740.41,364.186 742.268,363.659 743.432,362.965C744.184,362.517 744.589,362.051 744.581,361.496C744.572,360.896 744.185,360.307 743.653,359.73C742.612,358.602 740.967,357.614 739.245,357.017C737.858,356.536 736.418,356.302 735.205,356.521C734.253,356.692 733.461,357.171 733.095,358.134C732.799,358.911 732.108,359.703 731.098,360.377C729.183,361.653 726.05,362.595 723.361,362.624C720.288,362.657 717.869,361.431 717.503,358.932C717.356,357.931 717.543,356.653 718.285,355.077C719.229,353.075 721.124,350.471 724.369,347.173C724.533,347.005 724.975,346.73 725.674,346.485C727.313,345.911 731.04,344.976 733.469,343.534C733.978,343.231 734.425,342.91 734.754,342.555C734.966,342.328 735.131,342.097 735.171,341.833C735.225,341.469 735.016,341.105 734.632,340.671C734.074,340.04 733.269,339.839 732.364,339.796C731.181,339.74 729.84,339.969 728.477,340.243C726.655,340.609 724.798,341.058 723.173,341.18C721.891,341.276 720.735,341.166 719.789,340.763C718.147,340.064 717.385,338.624 717.725,336.41C718.087,334.06 719.923,330.551 723.206,326.171Z"/>
        </g>
        <g transform="matrix(1.91307,0,0,1.91307,-589.845,-91.1755)">
            <path d="M746.611,321.199C747.625,319.579 748.499,318.409 750.61,318.281C759.438,317.748 774.3,316.369 784.79,317.615C789.569,318.183 793.471,319.337 795.672,321.227C798.81,323.922 801.791,329.075 802.188,333.33C802.491,336.585 801.381,339.337 798.199,340.548C796.323,341.262 794.996,341.961 794.141,342.681C793.562,343.169 793.228,343.617 793.213,344.112C793.196,344.634 793.503,345.134 793.945,345.668C794.563,346.413 795.461,347.161 796.53,347.926C798.511,349.345 801.06,350.799 803.659,352.304C807.261,354.391 810.951,356.58 813.473,358.884C815.628,360.853 816.938,362.954 816.977,365.099C817.016,367.253 815.817,369.591 812.505,371.954C800.328,380.64 792.858,381.221 788.214,379.352C783.45,377.435 781.443,372.844 780.266,370.796C779.306,369.123 778.766,367.03 778.43,364.779C777.966,361.67 777.887,358.246 777.399,355.362C777.051,353.309 776.548,351.537 775.324,350.545C774.258,349.682 772.692,349.529 770.359,350.147C769.948,355.927 769.812,368.706 768.056,374.677C766.986,378.319 765.028,379.62 762.904,378.26C761.824,377.569 760.46,375.828 758.905,372.598C757.241,369.141 756.773,364.421 756.047,358.572C755.006,350.182 753.341,339.376 746.111,326.642C745.687,325.894 745.616,324.839 745.781,323.82C745.994,322.51 746.55,321.296 746.611,321.199ZM764.49,376.162C764.518,376.141 764.565,376.104 764.593,376.074C764.689,375.974 764.777,375.848 764.864,375.703C765.131,375.253 765.359,374.655 765.568,373.946C767.382,367.775 767.384,354.182 767.846,349.037C767.893,348.517 768.247,348.075 768.746,347.917C772.72,346.658 775.269,347.163 776.956,348.53C778.606,349.866 779.488,352.162 779.956,354.929C780.368,357.361 780.495,360.172 780.797,362.862C781.075,365.338 781.485,367.711 782.515,369.504C783.522,371.256 785.106,375.306 789.182,376.946C793.379,378.635 799.996,377.691 810.999,369.842C813.258,368.231 814.333,366.775 814.382,365.301C814.417,364.259 813.921,363.269 813.142,362.291C812.213,361.125 810.884,360.002 809.35,358.902C805.724,356.302 800.985,353.865 797.268,351.532C794.872,350.028 792.888,348.543 791.776,347.108C790.811,345.864 790.442,344.612 790.696,343.395C790.864,342.59 791.312,341.772 792.158,340.975C793.164,340.028 794.811,339.062 797.276,338.124C799.249,337.373 799.793,335.589 799.605,333.571C799.264,329.918 796.677,325.509 793.982,323.195C791.389,320.969 786.06,320.121 779.873,319.818C770.107,319.34 758.246,320.418 750.766,320.87C749.688,320.935 749.358,321.685 748.85,322.509C748.79,322.659 748.46,323.507 748.341,324.236C748.276,324.639 748.198,325.065 748.367,325.361C755.815,338.481 757.548,349.609 758.621,358.253C759.305,363.76 759.676,368.218 761.242,371.473C762.061,373.173 762.786,374.405 763.442,375.228C763.827,375.71 764.386,376.093 764.49,376.162Z"/>
        </g>
        <g transform="matrix(1.91307,0,0,1.91307,-536.609,-82.1592)">
            <path d="M737.268,326.638C737.002,325.973 737.327,325.218 737.991,324.953C738.656,324.688 739.411,325.012 739.677,325.677C741.309,329.768 741.323,329.749 741.732,334.096C741.799,334.809 741.275,335.442 740.562,335.509C739.85,335.576 739.217,335.052 739.15,334.339C738.776,330.363 738.761,330.38 737.268,326.638Z"/>
        </g>
        <g transform="matrix(1.91307,0,0,1.91307,-536.609,-82.1592)">
            <path d="M755.024,326.7C754.944,326.564 754.36,325.602 753.418,325.014C751.231,323.646 747.008,322.956 739.414,326.012C738.75,326.279 737.994,325.957 737.726,325.293C737.459,324.629 737.781,323.873 738.445,323.605C748.851,319.418 753.885,321.761 755.998,323.736C757.187,324.848 757.57,326 757.603,326.405C757.863,329.571 755.852,331.692 752.943,333.07C749.313,334.79 744.245,335.307 742.298,335.942C741.618,336.164 740.885,335.792 740.663,335.112C740.441,334.431 740.813,333.699 741.494,333.477C743.383,332.86 748.31,332.395 751.833,330.726C753.667,329.858 755.143,328.674 755.024,326.7Z"/>
        </g>
    </g>
</svg>
