<?xml version="1.0" encoding="UTF-8" standalone="no"?>
<!DOCTYPE svg PUBLIC "-//W3C//DTD SVG 1.1//EN" "http://www.w3.org/Graphics/SVG/1.1/DTD/svg11.dtd">
<svg width="100%" height="100%" viewBox="0 0 1242 2208" version="1.1" xmlns="http://www.w3.org/2000/svg" xmlns:xlink="http://www.w3.org/1999/xlink" xml:space="preserve" xmlns:serif="http://www.serif.com/" style="fill-rule:evenodd;clip-rule:evenodd;stroke-linejoin:round;stroke-miterlimit:2;">
    <rect id="Artboard1" x="0" y="0" width="1242" height="2208" style="fill:none;"/>
    <g id="Artboard11" serif:id="Artboard1">
        <g transform="matrix(3.30423,0,0,3.30423,-3013.52,-1207.98)">
            <path d="M977.791,525.432C977.236,525.959 974.086,529.196 976.601,532.542C1011.24,578.62 998.165,605.749 994.446,612.984C987.251,626.978 980.725,636.527 975.621,644.497C970.974,651.754 967.515,657.659 965.889,664.507C963.441,674.817 965.162,687.22 972.93,709.443C973.188,710.181 972.799,710.989 972.061,711.247C971.324,711.505 970.516,711.115 970.258,710.378C962.22,687.382 960.601,674.522 963.135,663.853C964.83,656.714 968.392,650.536 973.237,642.97C978.304,635.059 984.786,625.581 991.928,611.69C995.513,604.716 1007.72,578.655 974.338,534.243C970.032,528.514 975.459,523.553 976.32,522.989L976.902,522.742L977.297,522.719L977.775,522.844L978.178,523.121L978.479,523.555L978.576,523.859L978.6,524.225L978.509,524.643L978.323,524.987C978.18,525.184 977.996,525.334 977.791,525.432ZM975.777,524.371C975.722,524.016 975.802,523.641 976.029,523.327C975.729,523.741 975.721,524.108 975.777,524.371Z"/>
        </g>
        <g transform="matrix(3.30423,0,0,3.30423,-3013.52,-1207.98)">
            <path d="M973.44,710.06C973.543,710.134 973.816,710.324 974.043,710.433C974.795,710.793 975.875,711.121 977.221,711.419C988.844,713.994 1019.12,713.934 1038.16,702.977C1045.65,698.667 1050.38,690.934 1053.48,682.931C1058.29,670.55 1059.23,657.463 1060,654.425C1061.68,647.843 1065.66,641.803 1070.79,636.02C1078.25,627.596 1088.14,619.696 1096.49,611.287C1106.57,601.136 1114.45,590.271 1112.37,576.617C1110.26,562.731 1098.02,546.175 1068.28,524.741C1043.39,506.801 1002.22,508.187 978.4,524.754C977.758,525.2 976.875,525.041 976.429,524.4C975.983,523.758 976.142,522.876 976.783,522.429C1001.47,505.259 1044.14,503.852 1069.94,522.444C1100.62,544.561 1112.99,561.863 1115.17,576.191C1117.39,590.752 1109.25,602.458 1098.5,613.282C1091.56,620.272 1083.54,626.908 1076.76,633.789C1070.16,640.477 1064.72,647.377 1062.75,655.125C1061.96,658.198 1060.99,671.43 1056.12,683.955C1052.78,692.556 1047.62,700.799 1039.57,705.431C1019.9,716.753 988.619,716.844 976.609,714.184C974.261,713.663 972.592,712.999 971.747,712.342C971.392,712.066 971.141,711.774 970.973,711.491L970.788,711.096L970.678,710.642C970.58,709.867 971.13,709.158 971.905,709.06C972.602,708.971 973.246,709.407 973.44,710.06Z"/>
        </g>
        <g transform="matrix(3.30423,0,0,3.30423,-3013.52,-1207.98)">
            <path d="M1021.27,541.149C1023.05,540.675 1032.83,538.754 1043.99,540.44C1055.25,542.141 1067.88,547.495 1075.23,561.516C1081.44,573.362 1078.4,585.175 1072.05,596.295C1065.91,607.029 1056.68,617.109 1050.27,625.906C1033.97,648.247 1029.29,662.55 1025.69,668.875C1024.23,671.441 1022.81,672.816 1021.18,673.228C1019.56,673.636 1017.57,673.134 1014.84,671.415C1009.39,667.989 1007.88,660.532 1008.88,651.487C1011.04,631.719 1024.66,604.21 1026.74,599.761C1030.47,591.758 1029.96,584.071 1027.89,577.083C1025.76,569.873 1021.96,563.388 1019.24,558.008C1017.7,554.971 1016.49,552.262 1016.02,549.956C1015.61,547.934 1015.75,546.177 1016.54,544.708C1017.32,543.252 1018.76,542.028 1021.16,541.182C1021.2,541.169 1021.23,541.158 1021.27,541.149ZM1022.05,543.871L1022.05,543.872C1020.52,544.419 1019.53,545.114 1019.03,546.049C1018.53,546.982 1018.53,548.106 1018.8,549.391C1019.23,551.495 1020.36,553.956 1021.76,556.728C1024.55,562.239 1028.42,568.893 1030.61,576.278C1032.86,583.883 1033.36,592.247 1029.3,600.957C1027.27,605.331 1013.82,632.36 1011.69,651.796C1011.25,655.809 1011.29,659.486 1012.07,662.539C1012.78,665.354 1014.12,667.617 1016.34,669.019C1018.16,670.163 1019.41,670.754 1020.49,670.483C1021.55,670.215 1022.28,669.141 1023.23,667.476C1026.85,661.11 1031.58,646.723 1047.98,624.237C1054.34,615.516 1063.51,605.533 1069.59,594.891C1075.45,584.634 1078.45,573.757 1072.72,562.83C1065.87,549.761 1054.06,544.825 1043.57,543.24C1033.09,541.656 1023.88,543.399 1022.05,543.871Z"/>
        </g>
        <g transform="matrix(3.30423,0,0,3.30423,-3071.44,-1161.42)">
            <path d="M1109.41,655.972C1109.25,656.123 1109.05,656.236 1108.82,656.295C1108.78,656.375 1108.67,656.583 1108.64,656.727C1108.44,657.461 1108.45,658.395 1108.61,658.732C1111.85,665.207 1117.99,667.798 1125.2,668.871C1132.83,670.006 1141.64,669.436 1149.81,669.51C1154.86,669.556 1159.68,669.848 1163.84,670.884C1168.23,671.976 1171.91,673.897 1174.49,677.128C1177.83,681.3 1179.38,687.742 1177.95,697.722L1177.98,697.981C1177.98,698.359 1177.85,699.101 1176.88,700.239C1176.33,700.886 1174.92,701.572 1173.49,701.984C1172.08,702.391 1170.68,702.534 1170.26,702.451C1150.2,698.502 1136.8,701.589 1125.31,703.145C1113.32,704.766 1103.32,704.783 1090.35,694.362C1082.55,688.1 1080.69,678.596 1081.47,669.283C1082.61,655.632 1089.42,642.481 1090.34,641.31C1099.43,629.767 1100.08,630.556 1108.48,618.694C1117.03,606.605 1126.95,601.113 1136.54,599.944C1150.96,598.186 1164.7,606.262 1172.2,616.888C1177.29,624.094 1179.48,632.455 1177.25,639.718C1175.75,644.617 1172.26,649.055 1166.22,652.317C1151.23,660.415 1150.42,656.877 1133.9,653.336C1129.11,652.31 1121.34,653.387 1115.67,654.497C1112.93,655.035 1110.47,655.681 1109.41,655.972ZM1174.96,698.097L1174.93,698.034L1174.91,697.583L1174.99,697.233L1175.14,696.931L1175.21,696.851C1176.39,688.206 1175.21,682.557 1172.28,678.897C1170.08,676.14 1166.9,674.563 1163.16,673.631C1159.19,672.644 1154.6,672.385 1149.78,672.341C1141.49,672.266 1132.53,672.824 1124.78,671.671C1116.61,670.455 1109.75,667.341 1106.08,659.997C1105.75,659.327 1105.51,657.471 1105.9,656.009C1106.11,655.214 1106.49,654.553 1107.01,654.108L1107.13,653.924L1107.5,653.646C1107.92,653.413 1111.01,652.526 1115.13,651.718C1121.14,650.54 1129.41,649.478 1134.49,650.568C1150.02,653.896 1150.79,657.437 1164.88,649.826C1170.14,646.982 1173.24,643.16 1174.55,638.889C1176.53,632.399 1174.43,624.96 1169.89,618.52C1162.94,608.676 1150.24,601.126 1136.88,602.755C1127.95,603.844 1118.76,609.061 1110.79,620.329C1102.35,632.251 1101.7,631.461 1092.57,643.061C1091.7,644.167 1085.37,656.623 1084.29,669.519C1083.59,677.904 1085.1,686.517 1092.12,692.155C1104.29,701.93 1113.68,701.86 1124.93,700.339C1136.65,698.754 1150.3,695.651 1170.73,699.657C1170.88,699.637 1171.94,699.486 1172.7,699.264C1173.2,699.122 1173.69,698.95 1174.12,698.756C1174.37,698.638 1174.61,698.541 1174.72,698.405C1174.81,698.305 1174.89,698.196 1174.96,698.097Z"/>
        </g>
        <g transform="matrix(3.30423,0,0,3.30423,-3071.44,-1161.42)">
            <path d="M1129.96,625.937C1135.46,619.431 1144.12,621.298 1149.56,625.348C1151.76,626.984 1153.41,628.967 1154.15,630.826C1154.76,632.326 1154.8,633.774 1154.25,635.014C1153.94,635.7 1153.23,636.41 1152.12,636.97C1150.24,637.917 1147.01,638.584 1143.58,638.61C1135.84,638.667 1127.45,635.421 1129.67,626.508C1129.72,626.298 1129.82,626.102 1129.96,625.937ZM1132.34,627.514L1132.34,627.515C1131.96,629.283 1132.15,630.711 1132.82,631.842C1133.53,633.063 1134.75,633.921 1136.2,634.533C1138.36,635.446 1141.02,635.798 1143.56,635.779C1146.09,635.76 1148.5,635.368 1150.16,634.739C1150.63,634.561 1151.03,634.368 1151.34,634.153C1151.48,634.054 1151.61,633.978 1151.66,633.867C1151.92,633.278 1151.81,632.593 1151.53,631.88C1150.94,630.42 1149.6,628.904 1147.87,627.619C1143.57,624.42 1136.77,622.599 1132.34,627.514Z"/>
        </g>
        <g transform="matrix(3.30423,0,0,3.30423,-3131.23,-1193.71)">
            <path d="M1187.49,603.091C1186.99,602.486 1187.08,601.593 1187.69,601.099C1188.29,600.606 1189.19,600.696 1189.68,601.301C1205.76,621.006 1207.1,632.297 1206.45,643.621C1205.82,654.531 1203.17,665.499 1210.71,684.702C1212.52,689.328 1215.54,692.124 1218.93,693.385C1226.79,696.307 1236.6,691.105 1237.33,682.113C1240.69,640.668 1256.41,625.024 1264.62,612.654C1267.18,608.794 1268.99,605.289 1269.3,601.326C1269.6,597.363 1268.37,592.974 1265.03,587.344C1264.63,586.673 1264.85,585.803 1265.52,585.405C1266.19,585.006 1267.06,585.227 1267.46,585.899C1271.19,592.183 1272.45,597.116 1272.12,601.54C1271.78,605.964 1269.84,609.91 1266.98,614.219C1258.93,626.355 1243.45,641.682 1240.15,682.342C1239.26,693.216 1227.45,699.572 1217.94,696.039C1213.89,694.534 1210.24,691.256 1208.07,685.736C1201.85,669.865 1202.33,659.442 1203.1,650.137C1204.22,636.716 1205.95,625.72 1187.49,603.091Z"/>
        </g>
        <g transform="matrix(3.30423,0,0,3.30423,-3131.23,-1193.71)">
            <path d="M1189.77,601.989C1189.79,602.77 1189.17,603.417 1188.38,603.432C1187.6,603.447 1186.96,602.825 1186.94,602.044C1186.89,599.561 1186.3,597.064 1186.31,594.824C1186.31,593.025 1186.67,591.375 1187.73,589.949C1189.32,587.789 1192.69,586.043 1199.68,585.481C1212.85,584.421 1219.22,592.26 1222.49,602.295C1225.58,611.797 1225.81,623.306 1226.74,630.347C1226.96,632.022 1227.21,633.426 1227.58,634.452C1227.69,634.777 1227.82,635.056 1227.96,635.281C1228.03,635.397 1228.08,635.515 1228.18,635.543C1228.32,635.582 1228.46,635.462 1228.65,635.346C1229.17,635.038 1229.76,634.496 1230.45,633.72C1232.37,631.567 1234.04,626.187 1235.86,619.684C1238.75,609.435 1241.86,596.465 1246.15,588.012C1248.75,582.88 1251.88,579.402 1255.47,578.68C1259.08,577.953 1263.43,579.878 1268.39,586.319C1268.87,586.938 1268.75,587.827 1268.13,588.305C1267.52,588.782 1266.63,588.666 1266.15,588.048C1264.05,585.322 1262.12,583.483 1260.33,582.418C1258.77,581.496 1257.35,581.189 1256.03,581.455C1253.11,582.044 1250.79,585.11 1248.67,589.293C1244.45,597.606 1241.42,610.371 1238.59,620.451C1236.61,627.501 1234.65,633.27 1232.57,635.604C1231.41,636.9 1230.42,637.671 1229.6,638.04C1228.78,638.412 1228.06,638.447 1227.42,638.271C1226.56,638.03 1225.78,637.347 1225.21,636.136C1224.64,634.921 1224.24,633.05 1223.93,630.717C1223.02,623.804 1222.83,612.5 1219.8,603.172C1216.93,594.378 1211.45,587.374 1199.9,588.303C1194.18,588.763 1191.31,589.863 1190,591.631C1189.12,592.832 1189.07,594.295 1189.18,595.863C1189.31,597.809 1189.73,599.904 1189.77,601.989Z"/>
        </g>
        <g transform="matrix(3.30423,0,0,3.30423,-1723.85,470.509)">
            <path d="M749.148,228.662C749.144,228.648 749.14,228.633 749.137,228.617C749.087,228.372 749.247,228.132 749.492,228.083C751.573,227.664 752.64,228.14 753.071,228.887C753.475,229.587 753.358,230.636 752.872,231.713C752.21,233.179 750.906,234.708 749.791,235.36C749.62,235.46 749.076,235.581 748.527,235.414C747.931,235.233 747.302,234.753 747.242,233.592C747.194,232.655 747.559,231.175 748.827,228.89C748.897,228.764 749.017,228.685 749.148,228.662ZM749.658,228.975C749.693,229.09 749.683,229.217 749.621,229.33C748.635,231.108 748.222,232.339 748.155,233.191C748.104,233.854 748.267,234.233 748.538,234.424C748.817,234.621 749.309,234.571 749.348,234.567C750.331,233.985 751.462,232.629 752.045,231.34C752.231,230.926 752.361,230.52 752.402,230.149C752.437,229.842 752.413,229.563 752.285,229.341C752.155,229.117 751.916,228.967 751.564,228.889C751.105,228.788 750.485,228.809 749.671,228.973C749.667,228.974 749.662,228.975 749.658,228.975Z"/>
        </g>
        <g transform="matrix(3.30423,0,0,3.30423,-1723.85,470.509)">
            <path d="M756.802,228.234C756.828,227.985 757.052,227.804 757.301,227.83C757.55,227.856 757.731,228.08 757.705,228.329C757.494,230.336 757.535,231.764 757.727,232.77C757.897,233.662 758.175,234.191 758.509,234.475C758.834,234.751 759.199,234.751 759.467,234.677C759.614,234.637 759.734,234.585 759.778,234.536C760.031,234.253 760.305,233.696 760.48,233.016C760.898,231.393 760.717,229.058 758.123,227.873C757.895,227.769 757.794,227.499 757.898,227.271C758.002,227.043 758.272,226.943 758.5,227.047C761.629,228.476 761.863,231.285 761.359,233.242C761.139,234.097 760.772,234.787 760.454,235.143C760.297,235.317 759.787,235.626 759.166,235.628C758.505,235.63 757.69,235.323 757.165,234.076C756.727,233.036 756.486,231.244 756.802,228.234Z"/>
        </g>
        <g transform="matrix(3.30423,0,0,3.30423,-1723.85,470.509)">
            <path d="M751.932,228.719C751.772,228.912 751.486,228.939 751.293,228.779C751.1,228.619 751.073,228.333 751.233,228.14C754.547,224.142 754.483,223.539 760.124,215C760.262,214.791 760.544,214.734 760.753,214.872C760.962,215.01 761.02,215.292 760.882,215.501C755.205,224.093 755.267,224.697 751.932,228.719Z"/>
        </g>
        <g transform="matrix(3.30423,0,0,3.30423,-1723.85,470.509)">
            <path d="M756.758,227.587L756.684,227.337C756.223,225.784 753.869,217.868 753.356,214.755C753.316,214.508 753.483,214.274 753.73,214.233C753.978,214.193 754.211,214.36 754.252,214.608C754.76,217.693 757.097,225.539 757.554,227.079C757.602,227.241 757.631,227.336 757.635,227.354L757.651,227.496L757.625,227.626L757.561,227.745L757.416,227.871L757.268,227.922C757.035,227.958 756.816,227.811 756.758,227.587ZM756.744,227.447C756.749,227.356 756.781,227.272 756.834,227.202C756.801,227.245 756.751,227.32 756.744,227.447ZM756.834,227.201C756.902,227.11 757.005,227.044 757.127,227.025C757.018,227.042 756.915,227.093 756.834,227.201Z"/>
        </g>
        <g transform="matrix(3.30423,0,0,3.30423,-1389.89,141.541)">
            <path d="M681.492,327.851C681.13,327.785 681.115,327.773 680.905,327.471C680.631,327.075 680.712,327.036 680.8,326.562C681.41,323.272 682.093,317.642 683.343,296.769C683.363,296.44 683.575,296.25 683.612,296.217C683.615,296.214 684.188,296.013 684.19,296.014C684.373,296.102 684.602,296.129 684.738,296.28C684.873,296.432 684.924,296.652 684.942,296.855C684.954,296.988 684.584,303.424 684.552,303.996C683.546,321.535 682.948,324.915 682.554,327.117C682.488,327.486 682.22,327.671 682.174,327.703C681.872,327.912 681.853,327.917 681.492,327.851Z"/>
        </g>
        <g transform="matrix(3.30423,0,0,3.30423,-1389.89,141.541)">
            <path d="M696.056,301.152C696.224,301.46 696.225,301.478 696.127,301.815C695.999,302.253 695.926,302.219 695.525,302.436C693.142,303.725 684.747,308.083 678.913,308.414C677.519,308.493 674.936,308.438 673.535,306.522C673.135,305.975 673.312,305.899 673.675,305.328C673.676,305.325 674.272,305.193 674.277,305.194C674.784,305.283 674.685,305.45 675.045,305.819C677.758,308.602 687.24,305.012 694.872,300.805C695.186,300.632 695.484,300.719 695.535,300.734C695.872,300.833 695.887,300.844 696.056,301.152Z"/>
        </g>
        <g transform="matrix(3.30423,0,0,3.30423,-1398.6,136.914)">
            <path d="M697.979,322.232C700.476,318.192 703.545,314.298 706.494,313.407C706.759,313.327 708.87,312.605 710.747,314.547C714.128,318.044 708.706,326.256 708.46,330.512C708.438,330.904 708.183,331.132 708.139,331.171C708.135,331.175 707.447,331.418 707.444,331.417C706.711,331.065 706.485,331.097 706.547,330.287C706.861,326.166 711.431,318.738 709.682,316.016C709.612,315.908 708.955,315.002 707.872,314.938C704.456,314.738 699.224,322.37 695.385,330.157C695.101,330.733 695.021,330.972 694.816,331.118C694.242,331.528 693.431,330.968 693.673,330.254C694.305,328.382 695.787,324.872 697.11,320.051C699.172,312.539 702.382,296.383 702.433,296.308C702.523,296.176 702.57,296.001 702.704,295.913C702.708,295.91 703.176,295.82 703.178,295.821C703.582,296.095 703.709,296.076 703.666,296.561C703.652,296.721 702.26,303.495 702.136,304.097C700.115,313.933 699.023,318.65 697.979,322.232Z"/>
        </g>
        <g transform="matrix(3.30423,0,0,3.30423,-1399.74,141.591)">
            <path d="M727.578,311.018C727.204,310.974 725.268,310.724 722.162,312.873C718.23,315.592 714.577,321.046 716.648,325.162C717.847,327.545 720.656,331.52 727.89,327.947C731.153,326.336 733.745,323.927 733.763,323.92C733.968,323.851 734.162,323.699 734.378,323.713C734.383,323.713 734.964,323.997 734.965,323.999C735.035,324.204 735.186,324.398 735.173,324.613C735.146,325.047 735.077,325.034 734.75,325.32C732.559,327.232 729.328,329.448 726.233,330.433C724.115,331.107 718.484,332.502 715.187,325.891C711.561,318.618 721.75,308.6 727.822,309.475C729.208,309.675 731.924,312.676 727.378,316.242C725.593,317.642 723.197,318.832 720.479,319.927C720.196,320.042 720.18,320.041 719.899,319.921C719.894,319.92 719.49,319.509 719.49,319.506C719.492,319.314 719.422,319.107 719.497,318.929C719.647,318.576 719.701,318.607 720.056,318.462C728.419,315.047 729.18,312.244 727.789,311.148C727.689,311.07 727.686,311.071 727.578,311.018Z"/>
        </g>
        <g transform="matrix(3.30423,0,0,3.30423,-1469.37,215.693)">
            <path d="M493.93,305.192L494.873,304.6C494.579,305.145 494.084,305.191 493.93,305.192ZM492.827,303.695C492.844,303.66 492.863,303.63 492.884,303.605L492.866,303.575L492.891,303.531L492.917,303.574C493.114,303.418 493.473,303.704 493.883,305.19C493.883,305.19 493.9,305.192 493.93,305.192L493.857,305.237C493.236,305.237 492.731,304.733 492.731,304.111C492.731,303.949 492.765,303.795 492.827,303.695Z"/>
        </g>
        <g transform="matrix(3.30423,0,0,3.30423,-1469.37,215.693)">
            <path d="M507.715,319.118C507.621,319.023 507.145,318.546 506.671,318.207C504.755,316.837 501.205,314.704 496.735,309.616C496.184,308.989 495.117,308.583 494.295,307.973C493.054,307.05 492.197,305.846 492.736,303.829C493.595,300.618 496.285,299.304 499.131,297.849C507.689,293.474 520.604,292.441 524.007,293.099C528.795,294.025 531.624,295.966 533.144,298.378C535.407,301.97 534.782,306.758 532.97,311.341C530.5,317.587 525.926,323.434 524.764,324.888C524.9,326.705 525.461,328.064 526.407,329.063C527.448,330.163 528.926,330.822 530.694,331.242C533.292,331.858 536.488,331.944 539.977,331.904C546.795,331.828 554.688,331.273 561.562,332.856C568.721,334.505 574.81,338.407 577.668,347.302C581.275,358.526 579.93,365.092 576.521,368.792C573.295,372.292 568.101,373.335 562.943,373.22C555.629,373.056 548.447,370.615 547.967,370.534C531.451,367.749 519.698,371.363 509.164,374.199C501.906,376.153 495.206,377.736 487.985,376.811C482.461,376.104 478.677,374.917 476.231,373.435C474.426,372.343 473.302,371.073 472.693,369.709C471.226,366.427 472.781,362.408 475.82,358.419C479.697,353.328 485.881,348.187 489.591,344.66C490.997,343.323 492.046,342.288 492.312,341.588C496.927,329.455 497.178,329.752 506.64,320.442C507.062,320.027 507.374,319.686 507.575,319.385C507.632,319.3 507.69,319.173 507.715,319.118ZM494.912,304.411C494.614,305.525 495.384,306.027 496.121,306.49C496.982,307.031 497.89,307.518 498.427,308.13C503.645,314.069 507.588,315.856 509.025,317.203C509.69,317.827 509.97,318.436 509.979,319.071C509.988,319.811 509.532,320.757 508.219,322.048C499.114,331.007 498.859,330.713 494.418,342.389C494.087,343.258 492.889,344.633 491.144,346.292C487.502,349.755 481.418,354.787 477.611,359.784C476.322,361.477 475.297,363.158 474.761,364.771C474.286,366.198 474.198,367.558 474.749,368.79C475.324,370.075 476.561,371.187 478.581,372.14C480.831,373.201 483.993,374.029 488.271,374.577C495.197,375.464 501.617,373.898 508.578,372.024C519.372,369.118 531.418,365.459 548.341,368.313C548.811,368.392 555.836,370.808 562.994,370.968C567.485,371.068 572.056,370.313 574.864,367.265C577.92,363.95 578.756,358.05 575.524,347.991C572.959,340.011 567.479,336.53 561.057,335.051C554.352,333.507 546.652,334.082 540.002,334.157C536.308,334.198 532.925,334.086 530.174,333.434C527.932,332.902 526.091,332.006 524.772,330.612C523.426,329.191 522.594,327.248 522.491,324.567L522.549,324.161L522.677,323.9C522.691,323.879 522.764,323.782 522.895,323.619C523.794,322.499 528.423,316.714 530.875,310.513C532.405,306.646 533.148,302.61 531.238,299.579C529.975,297.575 527.558,296.08 523.579,295.31C520.373,294.69 508.219,295.733 500.157,299.854C499.171,300.358 498.192,300.825 497.327,301.386C496.215,302.106 495.294,302.982 494.912,304.411Z"/>
        </g>
        <g transform="matrix(3.30423,0,0,3.30423,-1469.37,215.693)">
            <path d="M510.252,305.982C509.904,305.467 510.04,304.767 510.555,304.418C511.07,304.07 511.77,304.206 512.119,304.721L516.54,311.26C516.888,311.775 516.752,312.476 516.237,312.824C515.722,313.172 515.022,313.037 514.674,312.522L510.252,305.982Z"/>
        </g>
        <g transform="matrix(3.30423,0,0,3.30423,-1469.37,215.693)">
            <path d="M521.135,303.791C521.095,303.779 520.908,303.722 520.781,303.708C520.404,303.665 519.946,303.692 519.445,303.755C516.766,304.092 513.014,305.502 512.591,305.693C512.024,305.948 511.357,305.695 511.102,305.128C510.847,304.561 511.1,303.894 511.667,303.639C512.13,303.43 516.234,301.888 519.164,301.52C520.025,301.411 520.798,301.406 521.388,301.524C521.983,301.643 522.438,301.891 522.747,302.217C524.099,303.644 523.951,305.315 522.879,306.998C521.673,308.893 519.15,310.828 517.399,312.169C516.905,312.547 516.198,312.453 515.82,311.96C515.442,311.467 515.536,310.759 516.029,310.381C517.599,309.179 519.898,307.486 520.979,305.788C521.427,305.085 521.678,304.39 521.135,303.791Z"/>
        </g>
        <g transform="matrix(3.30423,0,0,3.30423,-1469.37,215.693)">
            <path d="M507.683,352.901C527.806,341.296 532.65,338.655 546.515,344.151C550.035,345.547 552.251,347.009 553.548,348.379C554.55,349.438 555.045,350.475 555.207,351.425C555.529,353.315 554.571,354.959 553.064,356.029C551.665,357.022 549.808,357.485 548.296,357.216C531.188,354.167 525.862,352.779 508.387,354.994C507.855,355.061 507.349,354.744 507.178,354.236C507.007,353.727 507.218,353.169 507.683,352.901ZM513.502,352.151C527.198,350.83 533.188,352.235 548.692,354.999C549.667,355.172 550.857,354.834 551.76,354.192C552.557,353.626 553.156,352.803 552.986,351.803C552.856,351.037 552.32,350.225 551.311,349.358C550.112,348.328 548.293,347.279 545.685,346.246C533.646,341.473 528.811,343.386 513.502,352.151Z"/>
        </g>
        <g transform="matrix(3.30423,0,0,3.30423,-1497,224.22)">
            <path d="M579.687,303.986C579.691,303.994 579.694,304.002 579.697,304.009C580.454,305.767 584.407,313.492 585.089,319.611C585.432,322.687 584.92,325.376 583.145,326.988C581.943,328.079 580.135,328.734 577.491,328.6C572.781,328.361 571.74,324.848 571.043,321.44C570.82,320.351 570.632,319.29 570.273,318.449C570.086,318.013 569.864,317.641 569.498,317.429C569.118,317.209 568.611,317.181 567.932,317.307C565.638,317.73 564.472,318.834 562.938,319.897C560.324,321.708 556.826,323.565 546.819,322.817C546.239,322.774 545.794,322.298 545.777,321.73C545.376,321.447 545.194,320.922 545.365,320.436C546.861,316.189 547.628,314.055 548.937,312.316C550.247,310.575 552.107,309.22 555.876,306.596C556.771,305.973 563.049,298.14 568.714,293.955C570.566,292.587 572.37,291.6 573.924,291.266C575.191,290.994 576.323,291.13 577.268,291.709C578.171,292.261 578.935,293.244 579.409,294.83C579.985,296.761 580.15,299.715 579.687,303.986ZM547.688,320.62C557.744,321.263 560.278,319.014 562.846,317.197C564.148,316.276 565.464,315.471 567.523,315.091C568.975,314.824 570.014,315.07 570.792,315.582C571.875,316.293 572.485,317.626 572.877,319.245C573.185,320.52 573.385,321.983 573.824,323.294C574.357,324.889 575.297,326.233 577.605,326.35C579.474,326.445 580.781,326.091 581.631,325.32C582.933,324.138 583.102,322.116 582.85,319.861C582.27,314.657 579.181,308.252 577.997,305.71C577.725,305.126 577.545,304.717 577.486,304.535L577.424,304.265L577.422,303.981C577.799,300.631 577.792,298.152 577.464,296.379C577.201,294.952 576.777,294.049 576.092,293.63C575.463,293.245 574.673,293.339 573.79,293.638C572.636,294.028 571.365,294.797 570.052,295.767C564.368,299.966 558.061,307.82 557.163,308.445C553.691,310.861 551.943,312.067 550.737,313.67C549.588,315.196 548.936,317.071 547.688,320.62Z"/>
        </g>
        <g transform="matrix(3.30423,0,0,3.30423,-1497,224.22)">
            <path d="M565.186,310.488C564.715,310.893 564.003,310.84 563.597,310.369C563.192,309.898 563.245,309.186 563.716,308.781C566.566,306.327 566.264,306.384 568.56,303.5C568.947,303.014 569.656,302.934 570.143,303.321C570.629,303.708 570.709,304.417 570.322,304.904C567.891,307.957 568.203,307.889 565.186,310.488Z"/>
        </g>
        <g transform="matrix(3.30423,0,0,3.30423,-1497,224.22)">
            <path d="M565.846,311.268C565.259,311.474 564.616,311.164 564.411,310.578C564.205,309.991 564.515,309.348 565.101,309.142L569.966,307.437C570.553,307.232 571.196,307.541 571.402,308.128C571.607,308.714 571.298,309.358 570.711,309.563L565.846,311.268Z"/>
        </g>
        <g transform="matrix(3.30423,0,0,3.30423,-1469.37,215.693)">
            <path d="M584.758,297.714C584.799,297.581 584.863,297.411 584.959,297.218C585.317,296.499 586.167,295.332 587.964,294.616C588.809,294.28 588.916,294.17 588.979,294.141L589.44,294.033C589.503,294.031 589.63,294.062 590.199,294.046C596.771,293.863 602.349,293.628 606.933,294.113C611.781,294.626 615.556,295.955 618.299,298.833C621.861,302.57 623.713,309.044 623.626,320.226C623.598,323.836 622.575,325.832 621.164,326.976C619.756,328.117 617.877,328.433 615.893,328.491C614.235,328.539 612.502,328.409 611.035,328.703C609.894,328.931 608.94,329.457 608.47,330.771C607.141,334.489 608.925,337.735 611.501,340.367C615.735,344.693 622.162,347.415 622.85,347.833C630.283,352.352 634.288,360.028 634.833,366.445C635.219,370.987 633.859,374.902 630.942,376.88L630.436,377.103L629.967,377.149C629.558,377.136 628.972,376.954 628.264,376.561C626.578,375.626 623.793,373.388 620.522,371.166C617.834,369.339 614.805,367.519 611.795,366.525C607.623,365.148 603.482,365.42 600.545,369.943C597.821,374.139 595.305,376.547 593.138,377.701C591.491,378.578 590.001,378.774 588.706,378.513C586.765,378.122 585.208,376.682 584.215,374.641C582.864,371.863 582.564,367.957 583.629,364.587C587.47,352.432 589.056,352.518 586.84,340.111C586.134,336.155 587.899,332.34 589.498,327.882C591.699,321.746 593.376,314.251 585.93,302.855C585.589,302.332 585.21,301.954 584.93,301.556C584.645,301.15 584.437,300.728 584.344,300.226C584.229,299.605 584.288,298.822 584.758,297.714ZM587.07,298.124C586.949,298.552 586.823,298.779 586.763,298.866L586.686,298.939C586.557,299.296 586.514,299.574 586.559,299.816C586.617,300.13 586.828,300.345 587.038,300.602C587.286,300.906 587.559,301.23 587.816,301.623C595.852,313.923 593.994,322.02 591.618,328.643C590.166,332.691 588.416,336.122 589.058,339.715C591.37,352.663 589.786,352.582 585.777,365.266C584.888,368.078 585.114,371.338 586.241,373.655C586.9,375.01 587.862,376.046 589.15,376.305C590.254,376.527 591.542,376.168 593.013,375.135C594.721,373.936 596.607,371.872 598.656,368.717C601.695,364.036 605.76,362.982 610.028,363.749C614.009,364.465 618.192,366.859 621.788,369.302C624.553,371.181 626.962,373.075 628.641,374.158C629.102,374.455 629.671,374.726 629.922,374.841C632.064,373.211 632.885,370.124 632.589,366.635C632.094,360.81 628.428,353.86 621.68,349.758C620.963,349.322 614.3,346.447 609.891,341.943C606.706,338.688 604.706,334.61 606.349,330.013C607.536,326.693 610.508,326.271 613.773,326.255C614.968,326.249 616.196,326.281 617.33,326.128C618.28,326 619.163,325.747 619.852,325.136C620.822,324.275 621.354,322.763 621.374,320.208C621.453,309.876 619.96,303.84 616.668,300.387C614.271,297.872 610.933,296.801 606.696,296.353C602.194,295.876 596.716,296.118 590.262,296.297C590.029,296.304 589.85,296.303 589.72,296.299C589.529,296.396 589.227,296.538 588.797,296.709C587.901,297.066 587.329,297.753 587.07,298.124Z"/>
        </g>
        <g transform="matrix(3.30423,0,0,3.30423,-1469.37,215.693)">
            <path d="M600.857,306.797C600.735,306.187 601.131,305.593 601.74,305.471C602.35,305.349 602.944,305.745 603.066,306.354L604.663,314.334C604.786,314.944 604.39,315.537 603.78,315.659C603.171,315.782 602.577,315.386 602.455,314.776L600.857,306.797Z"/>
        </g>
        <g transform="matrix(3.30423,0,0,3.30423,-1469.37,215.693)">
            <path d="M602.549,307.201C602.085,307.614 601.373,307.574 600.959,307.11C600.545,306.646 600.586,305.933 601.05,305.519C603.282,303.53 606.568,303.798 609.241,305.404C611.849,306.97 613.778,309.766 613.557,312.547C613.49,313.395 612.996,314.53 612.137,315.534C610.98,316.883 609.191,317.985 607.169,317.909C605.831,317.858 604.367,317.306 602.915,315.89C602.471,315.456 602.462,314.742 602.896,314.297C603.33,313.852 604.044,313.843 604.489,314.277C605.441,315.207 606.376,315.625 607.254,315.658C608.557,315.707 609.681,314.938 610.426,314.068C610.924,313.487 611.272,312.86 611.311,312.369C611.47,310.376 609.95,308.457 608.081,307.335C606.276,306.25 604.057,305.857 602.549,307.201Z"/>
        </g>
        <g transform="matrix(3.30119,0,0,3.28083,-1518.26,137.675)">
            <path d="M648.37,319.766C649.593,318.008 650.634,317.433 651.76,316.89C659.443,313.188 665.177,313.276 669.272,315.282C675.465,318.315 678.051,325.874 677.966,332.344C677.929,335.123 677.403,337.69 676.505,339.601C675.836,341.023 674.951,342.096 673.928,342.716C671.418,344.234 669.787,345.516 668.866,346.632C668.234,347.396 667.953,347.992 668.146,348.534C668.276,348.899 668.587,349.197 668.988,349.483C669.535,349.872 670.242,350.208 671.051,350.512C675.615,352.231 683.125,352.914 686.032,354.12C687.687,354.807 689.461,356.54 691.051,358.898C693.288,362.214 695.217,366.763 696.106,370.96C696.722,373.865 696.832,376.608 696.268,378.699C695.836,380.299 695.017,381.545 693.793,382.315C692.529,383.109 690.791,383.415 688.476,382.911C685.452,382.252 681.295,380.158 675.772,375.99C674.039,374.682 671.55,374.442 668.75,374.572C664.11,374.786 658.664,376.089 653.965,376.383C648.123,376.748 643.417,375.524 642.029,369.887C639.703,360.441 641.737,355.832 644.042,349.967C646.223,344.415 648.63,337.672 647.361,323.965C647.236,322.617 647.299,321.306 648.37,319.766ZM650.218,321.067C649.534,322.05 649.526,322.894 649.606,323.755C650.926,338.013 648.407,345.026 646.138,350.801C643.993,356.261 642.052,360.547 644.218,369.341C644.873,372.005 646.543,373.303 648.778,373.837C651.308,374.443 654.482,374.154 657.802,373.694C662.025,373.108 666.472,372.231 670.227,372.276C672.965,372.309 675.355,372.839 677.125,374.175C682.281,378.066 686.131,380.078 688.953,380.693C690.536,381.038 691.734,380.934 692.598,380.391C693.581,379.773 694.067,378.623 694.274,377.214C694.518,375.55 694.348,373.541 693.901,371.434C693.071,367.516 691.274,363.268 689.186,360.172C687.893,358.255 686.518,356.775 685.173,356.217C682.279,355.017 674.803,354.348 670.26,352.637C668.972,352.152 667.9,351.577 667.161,350.917C666.213,350.07 665.751,349.071 665.849,347.929C665.918,347.119 666.294,346.196 667.132,345.182C668.162,343.935 669.961,342.469 672.766,340.772C673.458,340.353 674.015,339.592 674.467,338.631C675.248,336.969 675.679,334.731 675.711,332.314C675.786,326.661 673.696,319.972 668.285,317.322C664.645,315.539 659.565,315.645 652.734,318.936C651.898,319.338 651.125,319.763 650.218,321.067Z"/>
        </g>
        <g transform="matrix(3.30119,0,0,3.28083,-1518.26,137.675)">
            <path d="M655.838,329.37C655.698,328.76 656.076,328.15 656.682,328.009C657.288,327.868 657.894,328.249 658.035,328.858C658.458,330.702 659.267,332.848 659.691,334.691C659.831,335.301 659.453,335.91 658.846,336.051C658.24,336.193 657.634,335.812 657.494,335.202C657.07,333.359 656.262,331.213 655.838,329.37Z"/>
        </g>
        <g transform="matrix(3.30423,0,0,3.30423,-1469.37,215.693)">
            <path d="M644.527,310.56C644.019,310.917 643.316,310.794 642.959,310.285C642.602,309.776 642.725,309.073 643.234,308.716C646.046,306.742 646.705,305.888 649.873,304.699C650.455,304.48 651.104,304.776 651.323,305.357C651.541,305.939 651.246,306.589 650.664,306.808C647.728,307.91 647.135,308.73 644.527,310.56Z"/>
        </g>
        <g transform="matrix(3.30119,0,0,3.28083,-1518.26,137.675)">
            <path d="M658.334,329.934C658.045,330.267 657.576,330.412 657.132,330.265C656.542,330.069 656.22,329.427 656.415,328.833L656.535,328.573L656.707,328.346C656.81,328.237 656.985,328.091 657.24,327.943C658.058,327.466 660.149,326.696 662.121,326.51C663.862,326.346 665.485,326.698 666.368,327.717C667,328.447 667.356,329.544 667.025,331.176C666.901,331.789 666.305,332.186 665.696,332.061C665.086,331.935 664.692,331.336 664.816,330.722C664.959,330.017 664.942,329.523 664.668,329.208C664.481,328.992 664.198,328.887 663.882,328.819C663.414,328.718 662.879,328.717 662.33,328.769C660.724,328.92 658.638,329.803 658.334,329.934Z"/>
        </g>
        <g transform="matrix(3.30119,0,0,3.28083,-1518.26,137.675)">
            <path d="M659.142,359.152C659.282,358.542 659.888,358.162 660.494,358.303C661.101,358.444 661.479,359.053 661.339,359.663L660.47,363.441C660.33,364.05 659.724,364.431 659.118,364.29C658.512,364.149 658.133,363.539 658.274,362.929L659.142,359.152Z"/>
        </g>
        <g transform="matrix(3.30119,0,0,3.28083,-1518.26,137.675)">
            <path d="M660.793,359.589C660.174,359.526 659.723,358.969 659.786,358.346C659.848,357.723 660.402,357.269 661.021,357.332C666.467,357.888 669.134,358.591 670.931,359.818C672.734,361.049 673.688,362.836 675.598,365.738C675.81,366.06 675.844,366.469 675.689,366.822C675.534,367.176 675.211,367.426 674.831,367.485C668.696,368.445 665.133,366.432 659.141,364.69C658.543,364.517 658.198,363.887 658.371,363.286C658.543,362.684 659.169,362.337 659.767,362.511C664.796,363.973 667.989,365.725 672.724,365.437C671.653,363.733 670.911,362.546 669.664,361.695C668.061,360.6 665.654,360.085 660.793,359.589Z"/>
        </g>
        <g transform="matrix(3.30423,0,0,3.30423,-1540.01,197.24)">
            <path d="M726.013,348.957C723.082,351.946 721.336,354.288 720.477,356.11C719.998,357.126 719.806,357.935 719.9,358.58C719.982,359.136 720.328,359.507 720.807,359.749C721.481,360.091 722.372,360.211 723.335,360.201C725.257,360.18 727.454,359.609 729.048,358.776C729.911,358.324 730.613,357.843 730.83,357.273C731.525,355.445 732.97,354.46 734.776,354.136C736.354,353.852 738.234,354.102 740.038,354.728C742.153,355.461 744.156,356.702 745.434,358.087C746.426,359.163 746.987,360.343 747.003,361.461C747.019,362.517 746.591,363.562 745.489,364.475C744.21,365.534 741.846,366.458 737.965,366.911C731.77,367.634 726.699,371.365 721.609,374.835C716.17,378.543 710.709,381.958 704.095,381.804C701.761,381.749 700.343,381.076 699.553,380.08C699.032,379.423 698.751,378.604 698.708,377.624C698.656,376.433 698.972,374.96 699.567,373.262C701.305,368.293 705.471,361.156 707.909,353.372C710.25,345.895 710.997,337.794 706.039,330.543C705.902,330.342 705.687,330.196 705.468,330.047C705.113,329.806 704.73,329.583 704.396,329.333C703.801,328.888 703.349,328.355 703.164,327.67C703.036,327.2 703.024,326.647 703.235,325.975C703.762,324.296 705.279,323.284 706.236,322.684C711.389,319.451 715.182,317.9 717.941,317.398C720,317.022 721.546,317.215 722.699,317.709C724.997,318.694 725.888,320.894 726.032,323.028C726.173,325.111 725.56,327.07 725.161,327.602C722.2,331.551 720.446,334.661 720.12,336.779C719.989,337.634 720.104,338.264 720.738,338.534C721.511,338.863 722.498,338.836 723.583,338.705C725.532,338.47 727.754,337.847 729.806,337.546C732.52,337.148 734.951,337.374 736.447,339.066C737.442,340.191 737.708,341.248 737.567,342.192C737.374,343.479 736.301,344.67 734.706,345.617C732.444,346.961 729.134,347.917 727.172,348.542C726.695,348.694 726.155,348.901 726.013,348.957ZM705.384,326.649C705.188,327.275 705.676,327.497 706.088,327.765C706.769,328.208 707.478,328.657 707.898,329.271C713.281,337.144 712.6,345.928 710.058,354.045C707.612,361.856 703.438,369.02 701.693,374.006C701.285,375.17 701.014,376.202 700.963,377.081C700.925,377.73 700.996,378.276 701.317,378.679C701.799,379.286 702.724,379.519 704.147,379.552C710.28,379.695 715.297,376.412 720.34,372.974C725.73,369.299 731.143,365.439 737.704,364.673C740.462,364.351 742.341,363.813 743.52,363.111C744.339,362.623 744.76,362.099 744.751,361.493C744.742,360.858 744.342,360.226 743.778,359.614C742.721,358.469 741.05,357.462 739.301,356.856C737.885,356.365 736.413,356.13 735.174,356.353C734.163,356.535 733.325,357.049 732.935,358.073C732.65,358.824 731.979,359.584 731.003,360.235C729.112,361.496 726.016,362.425 723.359,362.453C720.384,362.485 718.026,361.326 717.672,358.907C717.529,357.931 717.716,356.686 718.44,355.149C719.378,353.159 721.264,350.572 724.49,347.292C724.647,347.134 725.068,346.878 725.73,346.646C727.376,346.069 731.117,345.129 733.556,343.68C734.081,343.369 734.54,343.037 734.879,342.671C735.116,342.416 735.295,342.154 735.339,341.859C735.4,341.454 735.186,341.041 734.76,340.558C734.171,339.893 733.327,339.671 732.372,339.626C731.176,339.569 729.821,339.799 728.444,340.076C726.628,340.441 724.779,340.889 723.16,341.01C721.909,341.104 720.779,340.999 719.855,340.606C718.285,339.938 717.568,338.554 717.894,336.436C718.254,334.098 720.089,330.61 723.359,326.25C723.439,326.143 723.499,325.91 723.573,325.614C723.735,324.971 723.846,324.089 723.785,323.179C723.71,322.071 723.397,320.894 722.471,320.167C721.479,319.388 719.874,319.184 717.377,319.828C714.899,320.467 711.66,321.94 707.433,324.592C706.809,324.983 705.728,325.555 705.384,326.649Z"/>
        </g>
        <g transform="matrix(3.30423,0,0,3.30423,-1561.32,200.12)">
            <path d="M746.755,321.289C747.737,319.721 748.575,318.575 750.62,318.452C759.441,317.918 774.289,316.539 784.77,317.785C789.508,318.348 793.378,319.483 795.56,321.357C798.67,324.026 801.625,329.131 802.018,333.346C802.314,336.519 801.24,339.208 798.138,340.389C796.239,341.112 794.897,341.822 794.031,342.551C793.406,343.078 793.059,343.571 793.042,344.106C793.024,344.665 793.341,345.206 793.814,345.777C794.44,346.532 795.348,347.289 796.431,348.065C798.416,349.487 800.97,350.943 803.574,352.452C807.165,354.532 810.844,356.713 813.358,359.01C815.473,360.941 816.768,362.998 816.806,365.102C816.844,367.215 815.654,369.498 812.406,371.815C800.306,380.446 792.892,381.051 788.278,379.194C783.559,377.295 781.579,372.739 780.414,370.711C779.463,369.055 778.931,366.982 778.599,364.754C778.135,361.644 778.056,358.219 777.567,355.334C777.211,353.233 776.683,351.427 775.431,350.413C774.316,349.509 772.668,349.341 770.198,350.014C769.781,355.729 769.658,368.625 767.893,374.629C767.556,375.774 767.152,376.692 766.698,377.32C766.221,377.983 765.664,378.372 765.08,378.523C764.452,378.685 763.752,378.6 762.995,378.116C761.931,377.435 760.593,375.711 759.059,372.524C757.401,369.081 756.94,364.378 756.216,358.551C755.173,350.145 753.503,339.318 746.259,326.557C745.852,325.84 745.791,324.825 745.949,323.847C746.157,322.57 746.696,321.384 746.755,321.289ZM748.698,322.431C748.644,322.564 748.296,323.449 748.173,324.208C748.101,324.652 748.033,325.12 748.218,325.445C755.652,338.54 757.381,349.647 758.452,358.274C759.138,363.804 759.516,368.279 761.088,371.547C762.068,373.581 762.909,374.945 763.658,375.74C763.883,375.978 764.089,376.156 764.289,376.266C764.379,376.316 764.452,376.367 764.527,376.339C764.722,376.267 764.855,376.051 765.01,375.79C765.284,375.331 765.518,374.719 765.732,373.994C767.548,367.815 767.553,354.204 768.016,349.053C768.056,348.6 768.365,348.217 768.797,348.08C772.693,346.845 775.195,347.323 776.849,348.662C778.47,349.976 779.327,352.238 779.788,354.958C780.199,357.387 780.326,360.194 780.628,362.881C780.908,365.382 781.327,367.777 782.368,369.589C783.385,371.361 784.997,375.446 789.119,377.104C793.344,378.805 800.018,377.884 811.098,369.981C813.416,368.327 814.503,366.82 814.553,365.307C814.589,364.227 814.083,363.198 813.275,362.184C812.338,361.008 810.997,359.874 809.45,358.764C805.82,356.161 801.078,353.723 797.359,351.388C794.983,349.896 793.014,348.427 791.911,347.004C790.982,345.806 790.618,344.601 790.863,343.43C791.025,342.654 791.46,341.867 792.275,341.099C793.27,340.163 794.9,339.211 797.337,338.283C799.389,337.502 799.971,335.655 799.775,333.555C799.43,329.863 796.817,325.404 794.093,323.066C791.48,320.822 786.115,319.953 779.881,319.648C770.109,319.169 758.241,320.248 750.756,320.7C749.607,320.769 749.242,321.553 748.698,322.431Z"/>
        </g>
        <g transform="matrix(3.30423,0,0,3.30423,-1469.37,215.693)">
            <path d="M737.426,326.575C737.196,325.997 737.477,325.342 738.055,325.111C738.632,324.881 739.288,325.163 739.518,325.74C741.141,329.808 741.156,329.79 741.562,334.112C741.62,334.731 741.165,335.281 740.546,335.339C739.927,335.397 739.378,334.942 739.319,334.323C738.943,330.323 738.928,330.34 737.426,326.575Z"/>
        </g>
        <g transform="matrix(3.30423,0,0,3.30423,-1469.37,215.693)">
            <path d="M755.193,326.662C755.129,326.55 754.52,325.501 753.509,324.869C751.297,323.486 747.027,322.764 739.35,325.853C738.773,326.085 738.117,325.806 737.885,325.229C737.653,324.652 737.932,323.996 738.509,323.764C748.808,319.62 753.79,321.905 755.881,323.86C757.024,324.928 757.401,326.029 757.433,326.419C757.687,329.51 755.71,331.571 752.87,332.916C749.247,334.632 744.189,335.146 742.245,335.78C741.654,335.973 741.018,335.65 740.825,335.059C740.632,334.468 740.956,333.832 741.547,333.639C743.44,333.021 748.376,332.552 751.906,330.881C753.816,329.976 755.332,328.726 755.193,326.662Z"/>
        </g>
    </g>
</svg>
