<?xml version="1.0" encoding="UTF-8" standalone="no"?>
<!DOCTYPE svg PUBLIC "-//W3C//DTD SVG 1.1//EN" "http://www.w3.org/Graphics/SVG/1.1/DTD/svg11.dtd">
<svg width="100%" height="100%" viewBox="0 0 1242 2208" version="1.1" xmlns="http://www.w3.org/2000/svg" xmlns:xlink="http://www.w3.org/1999/xlink" xml:space="preserve" xmlns:serif="http://www.serif.com/" style="fill-rule:evenodd;clip-rule:evenodd;stroke-linejoin:round;stroke-miterlimit:2;">
    <rect id="Artboard1" x="0" y="0" width="1242" height="2208" style="fill:rgb(236,231,202);"/>
    <clipPath id="_clip1">
        <rect id="Artboard11" serif:id="Artboard1" x="0" y="0" width="1242" height="2208"/>
    </clipPath>
    <g clip-path="url(#_clip1)">
        <path d="M-30.762,154.962C-33.602,153.922 -35.065,150.772 -34.025,147.931C-32.985,145.091 -29.835,143.629 -26.995,144.668C18.594,161.353 53.782,165.364 83.257,160.632C127.467,153.534 158.65,126.826 192.779,95.095C232.033,58.599 274.931,15.464 343.666,-14.389C346.441,-15.594 349.671,-14.32 350.876,-11.546C352.081,-8.771 350.807,-5.54 348.033,-4.335C263.542,32.361 218.918,89.693 171.161,128.889C121.761,169.434 69.238,191.56 -30.762,154.962Z" style="fill:white;fill-opacity:0.44;"/>
        <path d="M-10.107,225.988C-13.131,225.923 -15.533,223.414 -15.468,220.39C-15.403,217.366 -12.894,214.964 -9.87,215.03C24.084,215.762 64.9,235.982 134.504,202.235C242.396,149.924 224.679,123.072 410.208,16.928C412.834,15.426 416.185,16.338 417.687,18.963C419.189,21.589 418.277,24.94 415.651,26.442C229.707,132.823 247.419,159.669 139.286,212.098C67.235,247.032 25.042,226.747 -10.107,225.988Z" style="fill:white;fill-opacity:0.44;"/>
        <path d="M-9.018,108.612C-12.01,109.056 -14.8,106.988 -15.245,103.997C-15.69,101.005 -13.622,98.215 -10.63,97.77C105.894,80.45 100.077,64.526 197.382,-1.111C199.89,-2.802 203.299,-2.139 204.99,0.368C206.682,2.876 206.019,6.285 203.511,7.976C104.164,74.991 109.952,90.928 -9.018,108.612Z" style="fill:white;fill-opacity:0.44;"/>
        <path d="M-0.08,46.68C-3.046,47.276 -5.937,45.352 -6.533,42.386C-7.128,39.421 -5.204,36.529 -2.239,35.934C46.575,26.128 61.004,15.167 71.718,10.378C74.479,9.144 77.723,10.383 78.957,13.145C80.192,15.906 78.952,19.15 76.191,20.385C65.144,25.322 50.248,36.57 -0.08,46.68Z" style="fill:white;fill-opacity:0.44;"/>
        <path d="M1150.6,54.196C1153.44,53.156 1156.59,54.619 1157.63,57.459C1158.67,60.3 1157.21,63.45 1154.37,64.489C1139.49,69.935 1131.19,77.899 1128.22,86.116C1124.36,96.788 1130.32,107.404 1141.1,109.502C1143.97,110.061 1147.62,109.353 1151.57,108.005C1158.5,105.643 1166.14,101.151 1172.5,95.76C1177.1,91.858 1181.03,87.493 1183.38,83.077C1185.19,79.684 1186.11,76.322 1184.91,73.279C1183.01,68.473 1176.84,65.187 1165.47,62.946C1162.5,62.361 1160.56,59.477 1161.15,56.509C1161.73,53.542 1164.62,51.607 1167.58,52.191C1184.31,55.487 1192.31,62.181 1195.1,69.247C1197,74.049 1196.76,79.312 1194.7,84.65C1192.13,91.316 1186.55,98.21 1179.59,104.119C1172.16,110.417 1163.2,115.62 1155.11,118.379C1149.05,120.445 1143.41,121.118 1139,120.261C1121.51,116.854 1111.65,99.718 1117.91,82.389C1121.69,71.937 1131.67,61.124 1150.6,54.196Z" style="fill:white;fill-opacity:0.44;"/>
        <path d="M1119.96,-19.943C1121.6,-22.488 1124.99,-23.226 1127.53,-21.59C1130.08,-19.955 1130.82,-16.561 1129.18,-14.017C1115.56,7.182 1103.16,22.341 1093.63,35.111C1083.38,48.855 1076.47,59.48 1075.87,72.598C1075.27,85.979 1081.13,101.666 1095.33,125.345C1097.57,129.075 1100.16,139.13 1103.29,151.716C1107.59,169.052 1113.27,191.54 1122.03,207.073C1126.97,215.827 1132.61,222.485 1140.22,223.01C1145.26,223.358 1150.85,220.904 1157.36,215.386C1170.8,204.009 1174.02,195.671 1177.32,187.465C1181.14,177.951 1185.03,168.578 1200.87,155.969C1206.39,151.581 1211.81,148.99 1218.43,146.249C1227.44,142.523 1238.89,138.425 1256.63,127.742C1259.23,126.182 1262.6,127.02 1264.16,129.611C1265.72,132.202 1264.88,135.573 1262.29,137.133C1243.86,148.229 1231.98,152.508 1222.62,156.378C1217,158.701 1212.37,160.827 1207.7,164.547C1194.11,175.359 1190.77,183.391 1187.49,191.55C1183.69,201.018 1179.94,210.624 1164.45,223.75C1155.08,231.685 1146.72,234.445 1139.46,233.945C1128.62,233.197 1119.53,224.945 1112.49,212.46C1103.28,196.143 1097.17,172.568 1092.65,154.357C1089.89,143.245 1087.91,134.277 1085.93,130.984C1072.48,108.563 1066.21,92.473 1065.07,79.043C1063.68,62.762 1069.53,50.061 1080.27,34.839C1090.12,20.886 1104.22,4.547 1119.96,-19.943Z" style="fill:white;fill-opacity:0.44;"/>
        <path d="M1037.37,263.289C1035.87,260.664 1036.78,257.312 1039.41,255.81C1042.03,254.307 1045.38,255.219 1046.89,257.844C1050.22,263.663 1067.44,293.053 1122.07,294.858C1146.44,295.663 1157.09,291.529 1170.63,282.855C1185.18,273.538 1202.87,259.444 1241.56,241.134C1244.29,239.84 1247.56,241.01 1248.86,243.744C1250.15,246.478 1248.98,249.748 1246.25,251.042C1208.21,269.04 1190.85,282.927 1176.55,292.085C1161.24,301.887 1149.25,306.723 1121.71,305.813C1060.14,303.778 1041.13,269.847 1037.37,263.289Z" style="fill:white;fill-opacity:0.44;"/>
        <path d="M1257.65,325.557C1257.41,323.216 1258.71,320.893 1260.99,319.937L1263.82,319.172L1265.96,319.326L1268.15,320.383L1269.18,321.417L1269.91,322.663L1270.28,323.848L1270.38,325.332L1269.84,327.591C1269.43,328.57 1268.4,330.159 1266.61,332.057C1254.98,344.388 1202.93,380.973 1152,365.254C1130.18,358.521 1116.44,359.375 1108.73,365.697C1102.08,371.151 1100.77,380.457 1102.25,390.486C1104.74,407.398 1115.53,426.485 1128.71,436.847C1157.36,459.355 1172.91,472.289 1189.84,475.93C1206.57,479.529 1224.39,473.783 1257.49,460.324C1260.29,459.184 1263.49,460.534 1264.63,463.336C1265.77,466.138 1264.42,469.338 1261.62,470.477C1225.47,485.177 1205.8,490.576 1187.54,486.646C1169.47,482.759 1152.53,469.492 1121.94,445.466C1106.75,433.529 1094.28,411.569 1091.4,392.087C1089.3,377.849 1092.34,364.965 1101.78,357.222C1111.31,349.405 1128.25,346.454 1155.23,354.78C1195.58,367.231 1236.59,343.045 1253.28,329.398C1255.04,327.961 1256.52,326.663 1257.65,325.557Z" style="fill:white;fill-opacity:0.44;"/>
        <path d="M1184.45,411.919C1184.86,412.34 1185.35,412.73 1185.89,413.113C1188.09,414.668 1191.07,415.856 1194.48,416.847C1212.81,422.187 1242.34,421.129 1246.13,421.002C1249.16,420.901 1251.69,423.274 1251.8,426.297C1251.89,429.32 1249.52,431.856 1246.5,431.957C1242.45,432.092 1210.97,433.067 1191.41,427.37C1185.63,425.687 1180.81,423.374 1177.62,420.515C1174.81,418.007 1173.09,415.052 1172.54,411.712L1172.49,410.11L1172.95,408.211L1174.08,406.262C1174.55,405.661 1175.18,404.992 1176.02,404.298C1180.9,400.235 1195.78,393.639 1216.93,392.556C1227.8,391.999 1240.38,392.862 1254.08,396.246C1257.02,396.971 1258.81,399.944 1258.09,402.88C1257.36,405.817 1254.39,407.612 1251.45,406.887C1225.32,400.432 1203.67,403.962 1191.39,408.499C1188.72,409.487 1186.09,410.936 1184.45,411.919Z" style="fill:white;fill-opacity:0.44;"/>
        <path d="M1015.43,-19.308C1016.62,-22.087 1019.85,-23.372 1022.63,-22.176C1025.41,-20.98 1026.69,-17.754 1025.5,-14.975C1007,28.01 1016.67,67.138 1028.41,107.517C1040.72,149.893 1055.32,193.6 1045.84,243.932C1042.81,260.014 1024.73,320.911 1024.35,380.912C1024.1,419.687 1031.11,458.176 1055.43,483.038C1131.87,561.192 1241.4,569.273 1259.08,570.595C1262.1,570.82 1264.37,573.452 1264.14,576.468C1263.91,579.485 1261.28,581.751 1258.27,581.525C1239.96,580.157 1126.7,571.584 1047.59,490.703C1021.38,463.905 1013.12,422.636 1013.38,380.842C1013.78,319.991 1032,258.213 1035.07,241.903C1044.2,193.43 1029.74,151.388 1017.88,110.576C1005.44,67.765 995.814,26.266 1015.43,-19.308Z" style="fill:white;fill-opacity:0.44;"/>
        <path d="M572.89,-0.727C572.152,-3.66 573.934,-6.641 576.868,-7.378C579.801,-8.116 582.782,-6.334 583.519,-3.4C585.003,2.498 584.339,12.129 582.721,23.81C580.504,39.818 576.694,60.052 576.176,79.369C575.693,97.405 577.908,114.675 588.057,126.188C594.584,133.594 604.44,138.389 618.758,139.563C640.051,141.31 662.42,130.418 685.225,119.468C709.759,107.688 734.737,95.753 759.14,96.127C771.223,96.312 785.526,98.424 799.285,98.322C811.73,98.23 823.76,96.402 832.723,88.585C845.142,77.754 851.168,56.173 846.376,14.979C846.027,11.975 848.182,9.252 851.187,8.903C854.191,8.553 856.914,10.709 857.264,13.713C862.699,60.442 854.015,84.559 839.927,96.846C831.095,104.549 819.959,107.878 807.987,108.903C791.635,110.302 773.681,107.312 758.972,107.087C736.145,106.737 712.918,118.33 689.969,129.349C665.291,141.198 640.904,152.377 617.862,150.488C600.043,149.026 587.957,142.652 579.834,133.436C568.008,120.018 564.656,100.094 565.219,79.075C565.748,59.339 569.599,38.662 571.864,22.307C573.234,12.413 574.146,4.269 572.89,-0.727Z" style="fill:white;fill-opacity:0.44;"/>
        <path d="M648.184,1.074C649.079,-1.816 652.151,-3.436 655.04,-2.541C657.93,-1.647 659.549,1.425 658.655,4.314C654.267,18.494 652.642,29.602 653.326,38.194C653.916,45.6 656.234,50.905 660.11,54.406C664.044,57.959 669.425,59.614 675.592,60.129C682.577,60.713 690.511,59.8 698.778,57.991C732.926,50.518 772.607,27.84 776.356,24.105C778.5,21.971 781.972,21.978 784.107,24.121C786.241,26.264 786.235,29.737 784.091,31.871C780.071,35.876 737.738,60.685 701.121,68.698C681.424,73.008 663.38,72.13 652.763,62.54C642.241,53.036 637.916,34.25 648.184,1.074Z" style="fill:white;fill-opacity:0.44;"/>
        <path d="M-29.743,647.984C-32.654,648.805 -35.684,647.108 -36.505,644.197C-37.326,641.286 -35.629,638.256 -32.718,637.435C2.064,627.624 62.034,615.055 109.052,589.822C154.129,565.63 187.282,529.608 171.039,471.891C165.302,451.505 145.723,428.919 125.713,401.119C94.319,357.502 61.675,301.836 73.381,224.457C73.833,221.467 76.628,219.406 79.619,219.858C82.61,220.311 84.671,223.106 84.218,226.097C73.037,300.005 104.623,353.054 134.609,394.716C155.52,423.768 175.595,447.618 181.59,468.922C195.991,520.092 175.796,556.087 141.524,582.15C92.207,619.654 12.799,635.984 -29.743,647.984Z" style="fill:white;fill-opacity:0.44;"/>
        <path d="M-10.83,560.349C-13.586,561.595 -16.836,560.37 -18.082,557.614C-19.329,554.858 -18.104,551.609 -15.348,550.362C1.832,542.59 27.06,536.357 47.749,525.063C66.766,514.682 81.889,499.85 81.037,474.211C79.996,442.931 69.29,431.202 55.769,415.25C41.145,397.995 23.327,376.237 9.528,324.342C8.75,321.419 10.492,318.415 13.416,317.637C16.339,316.86 19.343,318.602 20.12,321.525C33.268,370.969 50.197,391.723 64.131,408.163C79.169,425.906 90.834,439.055 91.991,473.846C93.005,504.329 75.611,522.341 53.001,534.684C32.063,546.114 6.557,552.484 -10.83,560.349Z" style="fill:white;fill-opacity:0.44;"/>
        <path d="M-20.172,731.795C-23.18,732.117 -25.883,729.937 -26.206,726.93C-26.528,723.922 -24.348,721.219 -21.341,720.896C-15.883,720.311 190.844,720.145 252.116,550.164C277.328,480.222 257.153,426.291 228.898,376.542C199.564,324.893 161.843,277.506 153.584,222.373C153.136,219.381 155.2,216.589 158.192,216.141C161.183,215.693 163.976,217.758 164.424,220.749C172.491,274.603 209.775,320.678 238.429,371.128C268.161,423.478 288.957,480.284 262.428,553.881C198.958,729.958 -14.519,731.189 -20.172,731.795Z" style="fill:white;fill-opacity:0.44;"/>
        <path d="M228.005,369.005C225.867,371.145 222.394,371.147 220.254,369.009C218.114,366.872 218.112,363.399 220.25,361.259C246.541,334.939 341.088,291.402 426.14,391.642C485.476,461.574 525.704,513.072 583.582,534.759C621.848,549.097 667.795,550.216 732.086,535.3C735.032,534.616 737.979,536.453 738.663,539.4C739.347,542.346 737.509,545.293 734.563,545.977C667.533,561.528 619.632,559.972 579.736,545.023C520.369,522.778 478.645,470.464 417.783,398.734C339.281,306.214 252.271,344.712 228.005,369.005Z" style="fill:white;fill-opacity:0.44;"/>
        <path d="M185.455,261.456C186.249,261.539 188.65,261.753 190.697,261.588C198.52,260.959 210.57,258.229 225.5,254.927C261.51,246.963 313.706,235.687 364.242,240.265C398.641,243.381 432.255,253.814 459.759,277.223C487.086,300.481 502.626,323.643 516.426,345.076C531.801,368.955 544.835,390.655 571.082,407.421C597.55,424.329 637.274,436.171 705.608,440.759C708.626,440.962 710.912,443.577 710.709,446.595C710.506,449.613 707.892,451.898 704.874,451.696C582.545,443.482 548.374,411.932 520.656,371.553C502.848,345.611 487.966,315.623 452.655,285.57C423.211,260.51 386.204,251.572 349.268,250.319C292.512,248.394 235.826,264.565 205.265,270.454C195.342,272.365 187.878,273.121 183.625,272.319C181.76,271.967 180.285,271.34 179.161,270.571L177.743,269.364L176.564,267.77C175.076,265.137 176.004,261.79 178.637,260.302C180.936,259.002 183.779,259.545 185.455,261.456Z" style="fill:white;fill-opacity:0.44;"/>
        <path d="M211.124,175.828C208.104,175.657 205.791,173.066 205.962,170.046C206.133,167.026 208.724,164.714 211.744,164.885C241.352,166.563 277.769,161.873 318.117,161.27C379.913,160.346 450.711,168.852 520.648,222.48C558.959,251.858 578.815,276.089 596.89,295.332C623.002,323.131 645.372,339.895 718.148,346.405C721.161,346.675 723.388,349.339 723.118,352.352C722.849,355.365 720.184,357.592 717.171,357.322C640.087,350.427 616.558,332.281 588.901,302.836C571.131,283.918 551.643,260.06 513.978,231.178C446.42,179.373 377.975,171.337 318.281,172.229C277.636,172.837 240.95,177.518 211.124,175.828Z" style="fill:white;fill-opacity:0.44;"/>
        <path d="M507.417,199.844C507.308,202.867 504.767,205.233 501.744,205.125C498.721,205.017 496.355,202.475 496.463,199.452C498.694,137.091 485.942,116.521 465.373,89.764C451.048,71.128 433.165,49.592 413.979,10.307C412.652,7.589 413.781,4.305 416.499,2.977C419.217,1.65 422.501,2.779 423.828,5.497C442.568,43.868 460.071,64.881 474.063,83.083C495.971,111.583 509.793,133.424 507.417,199.844Z" style="fill:white;fill-opacity:0.44;"/>
        <path d="M579.471,291.476C578.806,294.427 575.87,296.282 572.92,295.617C569.969,294.952 568.114,292.016 568.779,289.065C595.297,171.456 580.66,138.149 552.55,89.165C540.176,67.603 525.321,43.073 510.244,7.5C509.064,4.715 510.367,1.496 513.152,0.316C515.937,-0.865 519.156,0.438 520.336,3.223C535.197,38.287 549.86,62.456 562.057,83.71C591.28,134.632 607.038,169.212 579.471,291.476Z" style="fill:white;fill-opacity:0.44;"/>
        <path d="M1006.61,304.065C1006.3,303.505 1005.83,302.73 1005.36,302.12C1003.99,300.366 1002.05,298.396 999.635,296.272C969.466,269.787 868.077,223.153 774.842,294.177C751.09,312.271 738.067,326.667 731.691,342.944C725.293,359.276 725.585,377.361 727.767,402.481C730.809,437.48 737.698,485.571 737.488,559.893C737.34,611.951 784.736,663.292 839.226,669.066C888.461,674.284 918.141,656.608 943.714,642.884C962.339,632.887 979.035,625.027 998.608,627.3C1019.18,629.689 1037.78,637.507 1055.77,643.483C1072.35,648.987 1088.36,652.959 1105.14,648.138C1128.11,641.541 1151.96,618.876 1180.78,564.418C1182.19,561.744 1185.51,560.722 1188.18,562.137C1190.86,563.551 1191.88,566.87 1190.46,569.544C1159.49,628.099 1132.86,651.579 1108.17,658.673C1089.2,664.122 1071.06,660.107 1052.32,653.885C1035,648.134 1017.14,640.487 997.343,638.188C980.012,636.175 965.389,643.69 948.897,652.541C921.793,667.088 890.254,685.496 838.071,679.966C778.22,673.624 726.365,617.042 726.527,559.862C726.789,467.297 715.977,415.571 715.446,379.109C714.888,340.875 724.832,318.494 768.2,285.457C867.19,210.05 974.835,259.915 1006.87,288.035C1013.62,293.96 1017.15,299.412 1017.78,302.8L1017.94,304.795L1017.57,307.012L1016.48,309.185L1014.79,310.885C1012.36,312.683 1008.92,312.169 1007.13,309.737C1005.87,308.036 1005.74,305.844 1006.61,304.065Z" style="fill:white;fill-opacity:0.44;"/>
        <path d="M1013.11,363.736C1016.06,364.393 1017.93,367.323 1017.27,370.276C1016.61,373.228 1013.68,375.092 1010.73,374.436C1006.54,373.504 1001.53,370.875 995.821,367.134C988.303,362.208 979.296,355.303 968.824,348.824C943.945,333.43 910.377,320.398 868.524,345.598C855.23,353.603 843.103,368.06 833.4,385.411C818.577,411.92 809.463,445.232 811.147,473.706C812.916,503.619 826.92,528.12 860.193,531.565C879.096,533.522 898.623,528.121 917.462,524C938.018,519.505 957.807,516.582 975.354,523.758C991.171,530.228 1002.28,536.855 1011.8,542.227C1021.89,547.917 1029.95,552.192 1040.62,552.679C1051.59,553.179 1065.13,549.764 1085.96,540.651C1088.73,539.438 1091.96,540.704 1093.17,543.475C1094.39,546.246 1093.12,549.48 1090.35,550.693C1067.32,560.77 1052.25,564.181 1040.12,563.628C1027.69,563.061 1018.17,558.405 1006.42,551.773C997.216,546.582 986.489,540.155 971.205,533.904C955.623,527.531 938.057,530.716 919.804,534.708C899.835,539.076 879.101,544.542 859.064,542.467C819.574,538.379 802.305,509.855 800.205,474.353C797.191,423.391 826.52,358.095 862.87,336.208C909.486,308.141 946.881,322.357 974.591,339.503C985.155,346.039 994.245,352.997 1001.83,357.966C1006.19,360.821 1009.91,363.025 1013.11,363.736Z" style="fill:white;fill-opacity:0.44;"/>
        <path d="M1006.32,419.68C1006.1,419.741 1005.87,419.789 1005.64,419.823C1002.66,420.264 999.878,418.206 999.424,415.227C998.879,415.065 998.322,414.911 997.767,414.772C990.538,412.958 980.131,411.313 968.731,410.514C950.039,409.204 928.608,410.057 914.418,416.625C906.561,420.262 901.081,425.727 901.001,434.237C900.876,447.441 909.605,453.803 922.701,457.599C946.214,464.412 982.687,463.151 1017.55,467.989C1020.54,468.404 1022.64,471.174 1022.22,474.17C1021.81,477.166 1019.03,479.261 1016.04,478.845C980.606,473.928 943.551,475.052 919.651,468.126C901.134,462.761 889.865,452.802 890.041,434.133C890.163,421.129 897.807,412.236 909.814,406.678C925.418,399.455 948.942,398.139 969.497,399.58C987.883,400.869 1003.86,404.369 1009.77,407.274C1011.7,408.226 1012.96,409.295 1013.66,410.172L1014.63,411.806L1015.06,413.345L1015.05,415.244L1014.55,416.798L1013.27,418.531L1011.74,419.551L1010.15,420.031L1008.62,420.101C1008.11,420.071 1007.13,419.866 1006.32,419.68ZM1010.31,414.826C1010.34,414.449 1010.33,414.041 1010.26,413.601C1010.33,414.015 1010.34,414.426 1010.31,414.826Z" style="fill:white;fill-opacity:0.44;"/>
        <path d="M714.969,177.508C714.733,175.048 716.195,172.652 718.633,171.809C797.569,144.485 812.229,175.955 809.828,195.896C809.013,202.662 806.215,208.605 803.11,211.948C801.157,214.052 798.982,215.282 796.943,215.731C753.282,225.331 753.803,226.704 716.288,251.596C704.163,259.641 694.828,263.813 687.921,265.246C682.101,266.454 677.631,265.826 674.304,264.183C668.956,261.542 665.931,256.137 665.541,248.703C665.101,240.315 668.165,228.888 673.439,217.675C679.141,205.554 687.359,193.676 695.85,186.204C702.239,180.582 708.933,177.45 714.969,177.508ZM720.735,182.46C720.759,182.711 720.767,182.966 720.756,183.224C720.631,186.246 718.076,188.598 715.054,188.473C711.784,188.338 708.362,190.207 704.862,192.957C698.314,198.102 691.917,206.511 686.823,215.608C681.71,224.738 677.904,234.582 676.78,242.685C676.19,246.934 676.183,250.603 677.724,253.038C678.968,255.004 681.434,255.284 685.049,254.638C691.099,253.559 699.298,249.715 710.228,242.463C749.405,216.468 748.938,215.067 794.42,205.063C794.54,204.967 794.964,204.622 795.196,204.36C795.702,203.785 796.174,203.072 796.61,202.265C798.556,198.659 799.718,193.346 798.801,188.157C797.676,181.788 793.129,175.823 783.031,173.322C770.769,170.285 751.556,172.011 722.218,182.167C721.727,182.336 721.229,182.432 720.735,182.46Z" style="fill:white;fill-opacity:0.44;"/>
        <path d="M786.596,113.978C784.025,112.384 783.232,109.003 784.826,106.433C786.42,103.862 789.801,103.069 792.372,104.663C802.468,110.923 826.614,121.602 847.746,133.938C862.629,142.626 875.994,152.22 882.711,161.59C895.541,179.486 898.896,190.027 902.435,200.41C905.693,209.967 909.137,219.369 921.652,235.244C923.524,237.619 923.116,241.068 920.741,242.94C918.365,244.813 914.917,244.405 913.044,242.03C899.365,224.679 895.621,214.392 892.06,203.947C888.782,194.328 885.688,184.555 873.803,167.976C867.773,159.565 855.58,151.203 842.22,143.404C820.99,131.01 796.739,120.268 786.596,113.978Z" style="fill:white;fill-opacity:0.44;"/>
        <path d="M861.314,63.598C858.407,62.763 856.725,59.724 857.56,56.817C858.395,53.91 861.434,52.228 864.341,53.063C924.884,70.457 939.226,99.283 952.483,130.791C964.803,160.069 975.999,191.942 1028.19,218.12C1030.89,219.477 1031.99,222.773 1030.63,225.476C1029.27,228.18 1025.98,229.274 1023.27,227.918C967.658,200.021 955.509,166.243 942.38,135.042C930.19,106.072 916.982,79.591 861.314,63.598Z" style="fill:white;fill-opacity:0.44;"/>
        <path d="M919.558,-4.321C919.561,-7.346 922.019,-9.799 925.044,-9.796C928.069,-9.794 930.522,-7.336 930.519,-4.311C930.503,13.96 940.972,27.034 953.78,36.379C974.198,51.278 1000.69,56.945 1005.39,57.959C1008.35,58.597 1010.23,61.516 1009.59,64.473C1008.95,67.429 1006.03,69.311 1003.08,68.673C997.998,67.576 969.396,61.342 947.319,45.234C931.797,33.908 919.538,17.821 919.558,-4.321Z" style="fill:white;fill-opacity:0.44;"/>
        <path d="M220.478,609.271C220.642,606.25 223.228,603.932 226.248,604.096C229.268,604.261 231.587,606.847 231.422,609.867C231.041,616.879 235.021,630.418 243.346,645.509C263.515,682.072 309.741,726.864 388.591,712.124C437.982,702.891 463.775,698.074 487.783,702.088C511.859,706.113 534.253,718.986 576.694,745.857C592.274,755.721 606.807,757.855 619.275,754.601C648.575,746.956 666.06,710.639 658.305,680.688C650.088,648.958 630.788,637.438 609.652,622.042C586.822,605.413 561.738,584.82 543.812,534.723C542.793,531.875 544.277,528.736 547.125,527.716C549.973,526.697 553.113,528.182 554.132,531.03C574.465,587.854 604.671,604.413 629.113,622.64C646.786,635.82 661.636,649.83 668.915,677.941C678.107,713.435 656.766,756.146 622.042,765.207C607.072,769.114 589.538,766.962 570.831,755.117C530.241,729.419 509.001,716.748 485.976,712.899C462.884,709.038 438.111,714.018 390.605,722.899C305.42,738.823 255.538,690.304 233.748,650.803C224.091,633.296 220.035,617.405 220.478,609.271Z" style="fill:white;fill-opacity:0.44;"/>
        <path d="M263.636,563.377C261.775,560.992 262.2,557.545 264.584,555.684C266.969,553.823 270.415,554.248 272.276,556.633C293.101,583.316 306.82,598.477 321.35,607.226C343.171,620.365 366.64,618.909 417.685,621.579C456.678,623.619 494.38,639.834 517.373,642.966C523.236,643.764 527.906,643.951 530.891,641.741C533.608,639.729 534.091,635.809 533.497,629.648C531.949,613.588 522.571,604.529 511.85,593.392C493.802,574.643 471.55,551.122 467.439,489.777C467.236,486.759 469.522,484.145 472.54,483.943C475.558,483.74 478.173,486.026 478.375,489.044C482.213,546.302 502.901,568.291 519.747,585.79C532.289,598.82 542.596,609.808 544.407,628.596C545.513,640.072 542.473,646.803 537.413,650.55C532.626,654.094 525.297,655.107 515.893,653.826C493.105,650.722 455.76,634.546 417.112,632.525C363.311,629.711 338.695,630.464 315.696,616.616C300.346,607.373 285.637,591.566 263.636,563.377Z" style="fill:white;fill-opacity:0.44;"/>
        <path d="M273.202,477.987C270.523,476.582 269.489,473.267 270.894,470.588C272.298,467.909 275.614,466.875 278.292,468.279C323.358,491.912 344.579,512.594 359.711,524.634C366.261,529.845 371.384,533.387 377.23,534.226C383.014,535.055 389.327,533.139 398.222,528.413C403.559,525.578 406.95,523.109 408.763,520.034C411.538,515.326 410.466,509.614 408.863,500.763C405.631,482.905 398.798,454.457 400.821,403.345C400.94,400.322 403.491,397.966 406.514,398.085C409.536,398.205 411.893,400.756 411.773,403.778C409.392,463.955 419.587,492.106 421.103,508.712C421.735,515.643 420.957,520.933 418.205,525.6C415.594,530.03 411.052,534.009 403.364,538.093C391.702,544.288 383.256,546.163 375.674,545.076C368.155,543.997 361.311,539.914 352.886,533.211C338.071,521.423 317.326,501.125 273.202,477.987Z" style="fill:white;fill-opacity:0.44;"/>
        <path d="M273.651,396.418C273.805,396.591 274.248,397.074 274.598,397.331C275.679,398.125 277.09,398.787 278.689,399.372C285.855,401.991 296.454,402.811 303.586,401.345C319.413,398.092 326.257,387.207 329.26,376.716C332.628,364.952 331.541,353.552 331.8,351.397C332.162,348.394 334.893,346.249 337.896,346.611C340.899,346.972 343.044,349.704 342.682,352.707C342.405,355.009 343.395,367.167 339.797,379.733C335.835,393.572 326.672,407.79 305.792,412.081C295.364,414.225 279.031,412.381 270.508,407.686C264.917,404.607 262.263,400.189 262.726,395.553C263.027,392.543 265.715,390.344 268.725,390.645C271.659,390.939 273.823,393.501 273.651,396.418Z" style="fill:white;fill-opacity:0.44;"/>
        <path d="M613.881,769.526C611.019,768.548 609.489,765.43 610.467,762.568C611.445,759.706 614.563,758.176 617.425,759.154C651.485,770.791 671.447,786.444 682.983,803.896C700.247,830.014 698.67,860.525 695.808,889.283C694.317,904.257 692.519,918.706 693.425,931.632C694.251,943.428 697.342,953.9 705.711,961.994C731.562,986.996 765.989,993.09 810.776,986.475C857.237,979.613 914.517,959.128 984.681,930.793C1005.53,922.374 1019.35,910.78 1027.68,897.01C1040.25,876.234 1040.31,850.737 1034.1,824.64C1017.91,756.644 959.115,684.644 951.155,674.873C949.244,672.528 949.597,669.073 951.942,667.163C954.287,665.252 957.742,665.605 959.653,667.95C967.84,678 1028.12,752.166 1044.76,822.102C1051.68,851.178 1051.07,879.536 1037.06,902.684C1027.68,918.197 1012.27,931.472 988.785,940.956C917.626,969.694 859.498,990.359 812.377,997.319C763.582,1004.52 726.256,997.113 698.091,969.873C687.719,959.842 683.514,947.017 682.49,932.398C681.546,918.908 683.345,903.824 684.901,888.197C687.521,861.874 689.642,833.847 673.839,809.94C663.33,794.041 644.909,780.127 613.881,769.526Z" style="fill:white;fill-opacity:0.44;"/>
        <path d="M658.323,730.874C655.628,729.501 654.555,726.198 655.928,723.503C657.301,720.808 660.604,719.735 663.299,721.108C730.94,755.568 723.234,764.771 757.346,823.323C768.911,843.172 788.59,849.999 809.499,850.087C842.463,850.224 878.607,833.919 894.301,821.875C915.218,805.823 924.211,788.997 926.231,773.058C928.591,754.442 921.575,737.238 913.936,724.416C905.873,710.882 896.986,702.026 896.271,701.017C894.522,698.55 895.106,695.126 897.573,693.377C900.041,691.628 903.465,692.212 905.214,694.679C906.734,696.824 942.402,732.642 937.105,774.436C934.793,792.678 924.912,812.201 900.974,830.57C884.035,843.57 845.032,861.196 809.453,861.047C784.666,860.944 761.585,852.372 747.876,828.84C715.278,772.89 722.96,763.803 658.323,730.874Z" style="fill:white;fill-opacity:0.44;"/>
        <path d="M651.037,652.143C648.244,650.981 646.921,647.77 648.084,644.977C649.247,642.185 652.458,640.862 655.25,642.025C700.981,661.067 728.26,692.321 750.039,708.02C757.426,713.344 763.947,716.868 770.572,716.425C775.271,716.112 779.858,713.671 784.813,708.876C790.633,703.244 796.72,694.587 803.507,682.268C804.967,679.618 808.303,678.652 810.952,680.112C813.601,681.572 814.567,684.908 813.107,687.557C805.641,701.109 798.838,710.557 792.435,716.753C785.166,723.788 778.196,726.901 771.302,727.362C762.47,727.952 753.478,724.01 743.629,716.911C722.323,701.553 695.777,670.773 651.037,652.143Z" style="fill:white;fill-opacity:0.44;"/>
        <path d="M621.77,558.922C620.795,556.058 622.328,552.942 625.192,551.967C628.055,550.993 631.171,552.526 632.146,555.389C634.824,563.257 647.903,582.416 661.97,592.842C667.957,597.279 674.004,600.361 679.474,598.9C685.032,597.416 689.083,591.336 692.124,579.495C692.877,576.565 695.866,574.797 698.796,575.55C701.725,576.302 703.493,579.292 702.74,582.221C698.266,599.642 690.478,607.307 682.301,609.49C674.039,611.696 664.487,608.35 655.444,601.648C639.46,589.801 624.813,567.861 621.77,558.922Z" style="fill:white;fill-opacity:0.44;"/>
        <path d="M-14.41,957.505C-15.527,954.694 -14.151,951.505 -11.34,950.389C-8.529,949.272 -5.34,950.647 -4.224,953.458C7.803,983.731 42.863,1004.84 85.025,1014.75C149.427,1029.9 230.873,1018.75 276.537,970.674C320.497,924.394 318.469,881.131 305.947,838.533C292.753,793.652 268.633,749.388 270.329,703.339C270.441,700.316 272.985,697.952 276.008,698.064C279.03,698.175 281.394,700.719 281.283,703.742C279.629,748.642 303.598,791.681 316.462,835.441C329.998,881.484 331.998,928.201 284.484,978.222C236.289,1028.96 150.487,1041.41 82.515,1025.42C36.426,1014.58 -1.263,990.597 -14.41,957.505Z" style="fill:white;fill-opacity:0.44;"/>
        <path d="M-3.456,861.899C-5.842,860.04 -6.27,856.593 -4.412,854.207C-2.553,851.821 0.894,851.393 3.28,853.251C13.698,861.367 55.813,917.803 144.785,895.56C171.653,888.843 187.986,879.562 197.128,867.197C206.093,855.073 207.911,840.149 206.662,822.58C203.951,784.434 186.878,734.561 186.499,673.374C186.48,670.349 188.921,667.879 191.945,667.86C194.97,667.841 197.441,670.282 197.46,673.306C197.837,734.206 214.897,783.836 217.595,821.803C219.052,842.291 216.395,859.576 205.942,873.714C195.667,887.611 177.641,898.644 147.444,906.193C52.706,929.878 7.638,870.54 -3.456,861.899Z" style="fill:white;fill-opacity:0.44;"/>
        <path d="M3.697,752.117C4.647,753.739 6.778,757.224 9.241,760.262C16.999,769.831 30.556,782.943 46.22,791.332C56.164,796.658 66.965,800.111 77.637,799.127C96.48,797.388 104.401,783.164 108.049,766.619C112.141,748.059 110.936,726.475 111.14,712.445C111.184,709.421 113.675,707.001 116.7,707.045C119.724,707.089 122.144,709.581 122.1,712.605C121.843,730.274 123.444,759.336 115.322,780.656C109.318,796.42 98.327,808.225 78.644,810.041C64.134,811.38 49.33,806.173 36.183,798.222C17.149,786.71 1.647,769.558 -4.329,760.285C-6.882,756.322 -7.771,753.136 -7.722,751.617L-7.331,749.573L-6.448,747.962L-4.515,746.317L-2.404,745.639C0.594,745.242 3.351,747.354 3.748,750.353C3.828,750.956 3.807,751.55 3.697,752.117ZM0.11,756.251C-0.232,756.37 -0.592,756.456 -0.965,756.505C-0.578,756.454 -0.22,756.368 0.11,756.251Z" style="fill:white;fill-opacity:0.44;"/>
        <path d="M917.644,958.255C916.217,955.588 917.224,952.264 919.892,950.838C922.559,949.411 925.882,950.418 927.309,953.085C949.37,994.323 973.453,1017.2 998.753,1027.17C1036.57,1042.08 1076.57,1028.02 1114.9,1005.64C1159.18,979.773 1201.19,942.599 1235.15,922.192C1237.75,920.634 1241.12,921.475 1242.67,924.067C1244.23,926.66 1243.39,930.03 1240.8,931.588C1206.8,952.014 1164.75,989.214 1120.43,1015.1C1079.01,1039.29 1035.6,1053.48 994.732,1037.37C967.58,1026.66 941.321,1002.51 917.644,958.255Z" style="fill:white;fill-opacity:0.44;"/>
        <path d="M1039.46,907.317C1037.56,907.466 1035.63,906.622 1034.49,904.936C1032.79,902.435 1033.44,899.023 1035.94,897.322L1037.88,896.425L1040.46,896.215C1041.82,896.347 1043.82,897.061 1046.3,898.491C1054.7,903.328 1074.08,918.1 1106.29,910.32C1130.35,904.51 1148.33,893.124 1165.45,880.068C1183.3,866.466 1200.24,851.084 1221.64,837.839C1224.21,836.247 1227.59,837.043 1229.18,839.614C1230.78,842.186 1229.98,845.567 1227.41,847.159C1206.33,860.204 1189.67,875.389 1172.1,888.785C1153.81,902.727 1134.55,914.77 1108.87,920.974C1079.9,927.97 1060,919.133 1048.16,912.365C1044.64,910.35 1040.75,908.075 1039.46,907.317Z" style="fill:white;fill-opacity:0.44;"/>
        <path d="M1048.25,814.196C1046.8,814.727 1045.13,814.643 1043.68,813.823C1041.04,812.336 1040.11,808.991 1041.6,806.357L1043.2,804.534L1045.4,803.47C1046.66,803.133 1049.6,803.204 1053.88,803.998C1068.65,806.744 1106.94,816.321 1143.3,800.41C1167.25,789.927 1177.77,781.89 1188.58,774.495C1199.93,766.726 1211.58,759.6 1237.97,751.237C1240.85,750.323 1243.93,751.922 1244.85,754.805C1245.76,757.689 1244.16,760.772 1241.28,761.685C1216.44,769.558 1205.45,776.228 1194.76,783.541C1183.53,791.227 1172.59,799.557 1147.69,810.451C1104.62,829.302 1059.02,815.171 1048.25,814.196Z" style="fill:white;fill-opacity:0.44;"/>
        <path d="M1003.09,730.819C1000.07,730.823 997.609,728.371 997.605,725.346C997.601,722.322 1000.05,719.863 1003.08,719.858C1053.48,719.791 1091.21,720.765 1127,703.675C1153.77,690.891 1165.26,681.51 1176.96,672.666C1189.18,663.426 1201.61,654.724 1230.45,643.579C1233.27,642.488 1236.45,643.894 1237.54,646.715C1238.63,649.536 1237.22,652.712 1234.4,653.803C1207.01,664.391 1195.18,672.631 1183.57,681.41C1171.43,690.586 1159.5,700.302 1131.72,713.566C1094.56,731.313 1055.43,730.749 1003.09,730.819Z" style="fill:white;fill-opacity:0.44;"/>
        <path d="M314.026,912.375C312.171,913.585 309.684,913.593 307.792,912.21C305.351,910.424 304.819,906.992 306.604,904.551L307.66,903.445L309.152,902.528C310.213,902.031 312.743,901.278 316.358,900.273C331.501,896.064 369.263,885.872 385.815,858.787C399.995,835.583 401.884,812.874 404.834,789.569C407.977,764.732 412.191,739.249 431.192,711.805C432.913,709.318 436.33,708.697 438.817,710.418C441.304,712.14 441.925,715.557 440.203,718.044C422.407,743.749 418.652,767.682 415.708,790.945C412.57,815.74 410.254,839.815 395.168,864.502C386.835,878.137 373.812,888.099 360.392,895.281C341.102,905.603 321.113,910.133 314.7,912.147C314.482,912.216 314.214,912.308 314.026,912.375Z" style="fill:white;fill-opacity:0.44;"/>
        <path d="M280.282,973.624C277.601,972.223 276.561,968.909 277.962,966.228C279.363,963.548 282.676,962.508 285.357,963.909C323.101,983.627 399.14,979.453 429.787,916.814C449.188,877.16 448.32,848.157 451.772,819.26C455.394,788.931 463.364,758.654 501.381,717.374C503.43,715.149 506.9,715.006 509.125,717.055C511.349,719.104 511.492,722.574 509.443,724.799C466.403,771.534 464.137,803.294 460.876,838.171C458.588,862.644 455.807,888.571 439.632,921.631C405.817,990.746 321.927,995.381 280.282,973.624Z" style="fill:white;fill-opacity:0.44;"/>
        <path d="M304.565,800.455C301.91,801.905 298.578,800.926 297.128,798.271C295.679,795.616 296.658,792.284 299.313,790.835C337.201,770.15 334.275,766.396 348.889,736.905C350.232,734.195 353.523,733.085 356.233,734.428C358.943,735.771 360.053,739.062 358.71,741.772C342.781,773.916 345.862,777.91 304.565,800.455Z" style="fill:white;fill-opacity:0.44;"/>
        <path d="M234.786,1010.98C232.617,1008.88 232.57,1005.4 234.679,1003.23C236.788,1001.07 240.26,1001.02 242.429,1003.13C253.971,1014.36 339.911,1098.37 441.007,1036.06C480.189,1011.92 486.86,971.33 493.958,923.642C501.428,873.452 508.892,815.551 549.509,759.094C551.276,756.638 554.703,756.079 557.159,757.845C559.614,759.612 560.173,763.039 558.407,765.495C510.957,831.451 510.428,899.573 500.065,954.147C492.77,992.568 480.674,1024.49 446.758,1045.39C338.903,1111.86 247.1,1022.96 234.786,1010.98Z" style="fill:white;fill-opacity:0.44;"/>
        <path d="M491.571,949.919C488.613,949.285 486.727,946.369 487.361,943.412C487.995,940.454 490.911,938.568 493.869,939.202C523.234,945.498 543.836,939.818 562.451,933.438C575.748,928.88 588.112,924.009 601.659,922.254C621.158,919.73 632.034,923.177 644.268,928.23C655.397,932.827 667.756,938.895 690.45,942.358C693.44,942.814 695.497,945.612 695.041,948.603C694.585,951.593 691.787,953.65 688.797,953.194C664.868,949.542 651.818,943.208 640.083,938.361C629.453,933.97 620.009,930.931 603.067,933.125C590.251,934.784 578.584,939.495 566.005,943.806C545.804,950.73 523.437,956.751 491.571,949.919Z" style="fill:white;fill-opacity:0.44;"/>
        <path d="M400.238,1070.67C397.358,1069.74 395.773,1066.65 396.7,1063.77C397.627,1060.89 400.718,1059.31 403.597,1060.24C478.535,1084.36 513.934,1104.04 533.549,1124.71C553.317,1145.55 557.271,1167.55 568.664,1196.93C592.468,1258.3 651.272,1266.69 697.1,1253.65C715.504,1248.41 731.872,1239.73 743.084,1229.5C750.043,1223.15 754.997,1216.25 756.865,1209.21C761.297,1192.49 754.788,1178.08 743.379,1164.79C724.585,1142.91 692.87,1124.11 668.467,1104.53C646.291,1086.74 630.315,1067.95 631.828,1046.73C632.6,1035.89 637.813,1024.22 649.492,1011.62C660.367,999.884 677.041,987.137 701.091,973.192C703.707,971.675 707.064,972.567 708.581,975.184C710.098,977.801 709.206,981.157 706.589,982.674C683.755,995.914 667.857,1007.93 657.531,1019.07C648.009,1029.35 643.391,1038.67 642.761,1047.51C642.149,1056.09 645.363,1064.04 650.825,1071.69C656.822,1080.09 665.481,1088.08 675.328,1095.98C700.241,1115.98 732.506,1135.31 751.694,1157.65C765.607,1173.85 772.865,1191.62 767.46,1212.01C765.121,1220.84 759.185,1229.64 750.473,1237.6C738.177,1248.82 720.284,1258.45 700.1,1264.19C649.458,1278.61 584.75,1268.71 558.445,1200.89C547.649,1173.06 544.328,1152 525.596,1132.26C506.711,1112.35 472.387,1093.9 400.238,1070.67Z" style="fill:white;fill-opacity:0.44;"/>
        <path d="M477.97,1015.99C475.008,1015.38 473.097,1012.48 473.706,1009.52C474.316,1006.55 477.216,1004.64 480.179,1005.25C564.013,1022.5 589.913,1081.06 610.832,1125.46C617.39,1139.38 623.395,1151.83 630.83,1160.78C637.435,1168.73 645.189,1173.73 655.884,1173.8C663.295,1173.84 668.404,1172 671.674,1168.55C674.974,1165.07 676.337,1160.18 676.762,1154.85C678.274,1135.9 667.798,1111.55 666.471,1108.42C665.291,1105.63 666.593,1102.41 669.378,1101.24C672.163,1100.05 675.382,1101.36 676.563,1104.14C678.034,1107.61 689.366,1134.7 687.688,1155.72C687.05,1163.72 684.573,1170.88 679.625,1176.09C674.646,1181.34 667.102,1184.83 655.818,1184.76C641.621,1184.67 631.168,1178.34 622.399,1167.78C614.458,1158.22 607.921,1145 600.917,1130.13C581.15,1088.18 557.188,1032.28 477.97,1015.99Z" style="fill:white;fill-opacity:0.44;"/>
        <path d="M583.158,808.285C586.975,806.312 591.925,806.157 597.453,807.864C607.469,810.957 620.023,820.408 629.061,829.824C635.416,836.444 639.981,843.116 641.292,847.498C644.61,858.585 640.851,868.701 633.092,876.315C622.419,886.788 603.85,892.233 587.933,888.138L585.592,886.973C584.72,886.309 583.176,884.701 581.471,882.108C574.923,872.153 563.267,844.84 577.642,811.571C578.603,809.346 580.867,808.082 583.158,808.285ZM585.29,822.251C576,850.337 587.355,872.364 591.867,877.808C603.832,880.399 617.473,876.284 625.415,868.492C630.243,863.754 632.856,857.539 630.792,850.641C629.953,847.838 627.076,843.954 623.328,839.76C617.094,832.784 608.324,825.27 600.207,820.926C597.048,819.235 594.03,818.019 591.352,817.698C590.15,817.554 589.053,817.556 588.159,818.039C587.394,818.452 586.901,819.25 586.507,820.321C586.232,821.067 585.812,821.717 585.29,822.251Z" style="fill:white;fill-opacity:0.44;"/>
        <path d="M1267.54,1105.39C1270.49,1104.76 1273.41,1106.64 1274.04,1109.6C1274.68,1112.56 1272.79,1115.47 1269.84,1116.11C1232.11,1124.2 1159.5,1150.24 1106.3,1196.98C1071.4,1227.64 1044.84,1267.25 1042.74,1316.78C1040.55,1368.12 1029.32,1384.36 1012.06,1402.78C1001.2,1414.36 987.708,1426.8 972.354,1450.51C961.058,1467.96 956.576,1488.85 961.605,1508.9C966.688,1529.17 981.47,1548.46 1008.22,1562.69C1043.98,1581.72 1071.56,1574.45 1104.29,1562.22C1138.98,1549.25 1179.15,1530.77 1238.88,1528.6C1241.9,1528.49 1244.44,1530.85 1244.55,1533.87C1244.66,1536.9 1242.3,1539.44 1239.28,1539.55C1181.06,1541.67 1141.94,1559.84 1108.12,1572.49C1072.34,1585.86 1042.18,1593.17 1003.07,1572.37C972.981,1556.36 956.691,1534.37 950.974,1511.57C945.204,1488.56 950.195,1464.57 963.153,1444.55C978.991,1420.1 992.863,1407.23 1004.06,1395.28C1019.88,1378.4 1029.79,1363.37 1031.78,1316.31C1034.02,1263.64 1061.95,1221.35 1099.07,1188.75C1153.88,1140.59 1228.67,1113.72 1267.54,1105.39Z" style="fill:white;fill-opacity:0.44;"/>
        <path d="M1278.63,1192.58C1281.59,1191.93 1284.51,1193.81 1285.16,1196.76C1285.81,1199.71 1283.93,1202.64 1280.98,1203.29C1240.49,1212.17 1216.9,1224.31 1202.56,1239.42C1180.97,1262.18 1180.44,1291.26 1173.52,1323.82C1168.86,1345.68 1151.08,1373.94 1141.35,1398.15C1138.37,1405.58 1136.16,1412.59 1135.58,1418.85C1135.08,1424.08 1135.7,1428.71 1138.43,1432.36C1147.67,1444.74 1163.53,1449.22 1179.58,1450.46C1205.57,1452.48 1232.4,1445.76 1237.82,1445.07C1240.82,1444.69 1243.56,1446.81 1243.95,1449.81C1244.33,1452.81 1242.2,1455.56 1239.2,1455.94C1233.59,1456.66 1205.72,1463.48 1178.73,1461.39C1159.45,1459.89 1140.75,1453.79 1129.65,1438.92C1126.16,1434.25 1124.54,1428.66 1124.47,1422.32C1124.38,1414.07 1127.03,1404.39 1131.18,1394.06C1140.68,1370.41 1158.25,1342.89 1162.79,1321.54C1170.18,1286.83 1171.59,1256.13 1194.61,1231.87C1210.01,1215.64 1235.13,1202.12 1278.63,1192.58Z" style="fill:white;fill-opacity:0.44;"/>
        <path d="M1258.97,1331.42C1257.96,1331.29 1254.64,1330.92 1252.05,1331.25C1246.5,1331.95 1239.62,1334.43 1235.58,1340.79C1231.14,1347.78 1230.31,1358.89 1236.33,1376.18C1237.32,1379.04 1235.81,1382.16 1232.95,1383.16C1230.09,1384.15 1226.97,1382.64 1225.97,1379.78C1218.35,1357.86 1220.7,1343.77 1226.33,1334.91C1232.35,1325.44 1242.4,1321.43 1250.67,1320.38C1256.88,1319.59 1262.12,1320.58 1264.31,1321.72L1266.3,1323.18L1267.66,1325.25C1268.79,1328.05 1267.43,1331.25 1264.62,1332.38C1262.64,1333.17 1260.47,1332.73 1258.97,1331.42Z" style="fill:white;fill-opacity:0.44;"/>
        <path d="M712.233,1257.83C713.743,1255.21 717.097,1254.31 719.717,1255.82C722.338,1257.33 723.24,1260.68 721.73,1263.31C707.239,1288.45 696.176,1310.77 691.762,1328.43C689.164,1338.83 688.771,1347.4 692.148,1353.63C694.727,1358.39 699.617,1361.42 706.941,1362.96C715.693,1364.8 727.533,1364.45 742.979,1361.82C816.285,1349.31 858.053,1316.53 901.06,1284.36C945.349,1251.24 990.895,1218.72 1071.26,1207.91C1074.26,1207.51 1077.02,1209.62 1077.42,1212.62C1077.82,1215.61 1075.72,1218.38 1072.72,1218.78C994.729,1229.26 950.605,1260.99 907.625,1293.14C863.364,1326.24 820.266,1359.75 744.823,1372.62C727.624,1375.56 714.435,1375.73 704.691,1373.69C693.517,1371.35 686.446,1366.11 682.512,1358.85C678.074,1350.67 677.715,1339.43 681.128,1325.78C685.729,1307.37 697.129,1284.05 712.233,1257.83Z" style="fill:white;fill-opacity:0.44;"/>
        <path d="M950.114,1060.69C951.074,1060.47 952.105,1060.5 953.105,1060.84C1027.6,1086.3 1062.38,1070.55 1089.03,1062.46C1108.96,1056.41 1124.81,1054.31 1147.13,1072.13C1151.89,1075.93 1154.11,1079.91 1154.68,1083.71C1155.25,1087.55 1154.21,1091.43 1151.48,1095.2C1148.44,1099.41 1143.01,1103.66 1135.82,1107.64C1100.42,1127.24 1019.42,1142.92 1016.64,1143.97C973.245,1160.36 917.722,1212.71 884.59,1231.19C877.109,1235.36 870.591,1237.87 865.451,1238.36C860.747,1238.81 856.909,1237.73 853.952,1235.29C851.198,1233.03 849.069,1229.42 848.178,1223.99C847.175,1217.87 847.725,1208.87 850.372,1196.4C861.84,1142.38 843.642,1119.43 828.66,1103C823.139,1096.94 818.074,1091.65 814.745,1086.17C810.828,1079.73 809.082,1073.03 810.943,1064.9C815.039,1047.01 829.084,1039.02 847.443,1037.26C884.964,1033.67 941.567,1057.49 947.222,1058.88C948.398,1059.17 949.392,1059.82 950.114,1060.69ZM947.131,1069.55C946.323,1069.73 945.461,1069.74 944.602,1069.53C939.892,1068.37 898.866,1050.93 864.271,1048.19C844.007,1046.59 825.712,1049.51 821.627,1067.35C820.213,1073.53 822.375,1078.34 825.939,1083.19C828.87,1087.18 832.699,1091.16 836.76,1095.62C853.306,1113.77 873.758,1139.03 861.094,1198.68C859.182,1207.68 858.407,1214.59 858.722,1219.71C858.936,1223.17 859.401,1225.58 860.917,1226.83C862.18,1227.87 863.989,1227.64 866.166,1227.17C869.877,1226.38 874.271,1224.39 879.252,1221.61C912.718,1202.95 968.933,1150.27 1012.77,1133.71C1015.51,1132.68 1095.56,1117.41 1130.51,1098.05C1134.57,1095.8 1137.98,1093.52 1140.46,1091.18C1142.4,1089.34 1143.83,1087.65 1143.87,1085.77C1143.89,1084 1142.52,1082.47 1140.29,1080.69C1121.84,1065.96 1108.69,1067.95 1092.21,1072.95C1064.25,1081.44 1027.74,1097.93 949.561,1071.22C948.578,1070.88 947.752,1070.29 947.131,1069.55Z" style="fill:white;fill-opacity:0.44;"/>
        <path d="M-100.066,1797.76C-103.063,1797.36 -105.166,1794.59 -104.759,1791.59C-104.352,1788.6 -101.588,1786.49 -98.591,1786.9C-97.979,1786.98 34.776,1818.21 152.953,1774.03C239.145,1741.8 281.871,1704.68 297.944,1665.63C309.76,1636.92 306.912,1607.39 296.915,1578.63C286.625,1549.03 268.785,1520.24 250.91,1493.86C235.296,1470.81 219.633,1449.59 208.677,1431.24C201.001,1418.38 195.622,1406.83 193.835,1396.98C188.245,1366.18 192.752,1342.02 196.231,1319.82C201.09,1288.8 203.696,1261.84 168.428,1224.22C138.507,1192.31 109.25,1178.77 78.625,1163.24C46.96,1147.18 13.851,1129.11 -22.945,1088.14C-24.967,1085.89 -24.781,1082.42 -22.531,1080.4C-20.28,1078.38 -16.813,1078.57 -14.791,1080.82C20.832,1120.47 52.927,1137.92 83.583,1153.46C115.278,1169.54 145.458,1183.69 176.424,1216.72C215.099,1257.98 212.389,1287.5 207.059,1321.52C203.745,1342.67 199.294,1365.68 204.62,1395.03C206.22,1403.84 211.215,1414.11 218.088,1425.62C228.953,1443.82 244.5,1464.86 259.983,1487.71C278.388,1514.87 296.674,1544.55 307.269,1575.03C318.157,1606.36 320.951,1638.53 308.08,1669.8C291.235,1710.72 247.124,1750.52 156.792,1784.29C36.11,1829.41 -99.441,1797.85 -100.066,1797.76Z" style="fill:white;fill-opacity:0.44;"/>
        <path d="M-44.721,1249.34C-47.646,1248.57 -49.396,1245.57 -48.625,1242.64C-47.855,1239.72 -44.855,1237.97 -41.93,1238.74C-3.509,1248.85 24.38,1257.3 44.49,1266.73C65.742,1276.71 78.626,1287.92 86.298,1302.95C96.194,1322.34 97.202,1348.53 95.324,1388.2C91.916,1460.16 123.923,1489.06 148.617,1511.14C167.225,1527.79 181.387,1541.46 178.423,1563.36C175.928,1581.79 161.101,1599.93 140.622,1616.08C95.31,1651.83 22.736,1678.74 12.148,1682.66C9.311,1683.71 6.155,1682.26 5.106,1679.42C4.056,1676.59 5.507,1673.43 8.344,1672.38C18.682,1668.56 89.593,1642.38 133.834,1607.48C151.735,1593.36 165.381,1578 167.561,1561.89C168.96,1551.55 165.117,1543.73 158.791,1536.26C154.028,1530.64 147.921,1525.23 141.31,1519.32C114.88,1495.68 80.727,1464.7 84.375,1387.68C86.131,1350.6 85.786,1326.06 76.535,1307.94C69.847,1294.84 58.361,1285.35 39.833,1276.66C20.163,1267.42 -7.139,1259.23 -44.721,1249.34Z" style="fill:white;fill-opacity:0.44;"/>
        <path d="M48.208,1542.67C47.795,1541.65 46.331,1538.08 44.805,1535.34C38.19,1523.45 26.291,1506.06 24.413,1499.42C19.773,1483.02 18.317,1470.84 17.169,1459.94C14.63,1435.85 13.542,1418.46 -20.757,1372.55C-22.567,1370.12 -22.069,1366.69 -19.646,1364.88C-17.222,1363.07 -13.785,1363.56 -11.975,1365.99C19.283,1407.83 24.371,1427.5 26.931,1448.38C28.557,1461.64 29.02,1475.44 34.96,1496.44C36.723,1502.67 48.171,1518.85 54.383,1530.01C56.577,1533.96 58.176,1537.38 58.826,1539.77C59.088,1540.73 59.226,1541.59 59.267,1542.33L59.115,1544.49C58.717,1546.39 57.583,1548.58 55.595,1550.79C53.548,1553.08 50.461,1555.58 46.771,1558.09C33.774,1566.94 12.873,1576.27 10.022,1577.54C7.258,1578.77 4.016,1577.52 2.786,1574.76C1.555,1572 2.8,1568.75 5.563,1567.52C8.28,1566.31 28.219,1557.46 40.606,1549.03C43.022,1547.39 45.133,1545.78 46.696,1544.24C47.316,1543.64 47.909,1543.16 48.208,1542.67Z" style="fill:white;fill-opacity:0.44;"/>
        <path d="M209.071,1382.23C207.887,1385.01 204.665,1386.31 201.882,1385.13C199.099,1383.94 197.802,1380.72 198.986,1377.94C215.062,1340.18 281.919,1278.56 353.958,1331.91C373.127,1346.11 396.114,1374.19 424.68,1394.16C451.83,1413.13 484.251,1424.57 523.644,1407.22C617.992,1365.67 596.724,1260.63 596.72,1255.3C596.717,1252.28 599.171,1249.82 602.196,1249.82C605.22,1249.81 607.678,1252.27 607.681,1255.29C607.685,1261 629.064,1372.78 528.061,1417.25C484.43,1436.47 448.473,1424.16 418.401,1403.14C389.744,1383.11 366.665,1354.96 347.435,1340.72C283.063,1293.05 223.436,1348.49 209.071,1382.23Z" style="fill:white;fill-opacity:0.44;"/>
        <path d="M127.919,1168.31C128.311,1171.31 126.194,1174.06 123.195,1174.45C120.195,1174.85 117.442,1172.73 117.05,1169.73C115.489,1157.77 112.334,1148.26 111.287,1140.06C110.444,1133.46 110.868,1127.58 113.611,1121.96C117.763,1113.47 127.777,1105.23 149.881,1096.47C159.755,1092.55 166.983,1084.78 172.268,1076.68C180.615,1063.88 184.165,1050.08 184.909,1047.2C185.666,1044.27 188.658,1042.51 191.587,1043.27C194.515,1044.02 196.278,1047.01 195.521,1049.94C194.694,1053.14 190.719,1068.45 181.449,1082.67C174.989,1092.57 165.986,1101.88 153.918,1106.66C135.718,1113.87 126.877,1119.78 123.459,1126.78C121.129,1131.54 121.663,1136.63 122.789,1142.56C124.178,1149.87 126.602,1158.23 127.919,1168.31Z" style="fill:white;fill-opacity:0.44;"/>
        <path d="M263.579,1093.45C265.553,1091.15 269.016,1090.9 271.308,1092.87C273.599,1094.85 273.857,1098.31 271.883,1100.6C259.723,1114.71 254.815,1125.14 254.153,1134.72C253.484,1144.39 257.031,1153.04 260.886,1163.34C266.636,1178.71 273.312,1197.31 271.609,1226.03C271.512,1227.66 272.559,1228.82 273.942,1229.84C276.461,1231.69 280.055,1232.98 284.034,1234.01C298.293,1237.7 317.072,1237.74 320.442,1238.7C323.804,1239.66 331.837,1244.26 342.651,1250.68C366.086,1264.6 403.853,1287.27 435.2,1294.37C448.734,1297.44 460.968,1297.72 469.803,1292.07C478.523,1286.49 483.322,1275.21 483.378,1256.36C483.462,1228.28 467.56,1209.09 451.031,1196.4C433.616,1183.03 415.351,1176.66 412.156,1174.84C385.992,1159.92 371.724,1148.14 359.287,1138.43C341.425,1124.5 327.469,1115.11 284.907,1106.8C281.938,1106.22 279.998,1103.34 280.577,1100.37C281.157,1097.4 284.038,1095.46 287.006,1096.04C332.255,1104.87 347.041,1114.97 366.03,1129.79C378.161,1139.26 392.065,1150.77 417.584,1165.32C420.887,1167.2 439.706,1173.89 457.705,1187.7C476.591,1202.2 494.434,1224.31 494.339,1256.4C494.267,1280.38 486.809,1294.2 475.711,1301.3C464.73,1308.33 449.596,1308.87 432.777,1305.06C404.959,1298.75 372.189,1280.76 348.124,1266.65C332.96,1257.76 321.512,1250.4 317.437,1249.24C316.002,1248.83 311.495,1248.7 305.782,1248.24C295.91,1247.44 282.906,1245.93 273.928,1242.21C265.316,1238.65 260.221,1232.9 260.667,1225.38C262.663,1191.74 252.183,1172.96 246.707,1156.34C243.578,1146.84 241.955,1137.95 244.063,1127.89C246.103,1118.17 251.719,1107.21 263.579,1093.45Z" style="fill:white;fill-opacity:0.44;"/>
        <path d="M31.074,1118.31C29.07,1120.58 25.604,1120.79 23.338,1118.78C21.073,1116.78 20.86,1113.31 22.864,1111.05C53.985,1075.86 52.148,1075.38 80.031,1038.03C81.841,1035.6 85.277,1035.1 87.701,1036.91C90.125,1038.72 90.624,1042.16 88.815,1044.58C60.658,1082.3 62.5,1082.78 31.074,1118.31Z" style="fill:white;fill-opacity:0.44;"/>
        <path d="M445.919,1414.12C444.522,1415.67 439.692,1421.19 436.483,1427.12C429.47,1440.07 423.323,1459.49 433.138,1475.41C439.849,1486.29 453.831,1495.17 478.952,1499.81C516.192,1506.67 545.723,1513.2 568.681,1521.38C592.572,1529.89 609.529,1540.29 620.904,1554.4C632.384,1568.64 638.297,1586.73 639.512,1610.9C640.674,1634.02 637.535,1662.9 631.145,1699.6C619.75,1765.04 637.991,1812.36 669.72,1832.56C700.983,1852.45 744.602,1845.03 783.598,1803.44C818.391,1766.33 829.726,1717.35 838.094,1677.51C843.985,1649.46 848.647,1625.74 857.867,1612.73C874.37,1589.43 890.833,1583.58 915.219,1579.47C937.845,1575.66 967.754,1573.36 1012.17,1557.69C1015.03,1556.68 1018.16,1558.18 1019.17,1561.03C1020.17,1563.89 1018.67,1567.02 1015.82,1568.03C970.558,1583.99 940.095,1586.39 917.041,1590.28C895.747,1593.87 881.222,1598.72 866.811,1619.06C858.194,1631.23 854.327,1653.54 848.821,1679.76C840.093,1721.31 827.883,1772.23 791.594,1810.94C747.988,1857.44 698.793,1864.05 663.835,1841.8C629.341,1819.85 607.959,1768.86 620.347,1697.72C626.562,1662.03 629.695,1633.94 628.565,1611.46C627.488,1590.03 622.544,1573.9 612.369,1561.28C602.089,1548.52 586.594,1539.4 565.003,1531.7C542.48,1523.68 513.498,1517.32 476.964,1510.58C443.183,1504.36 427.192,1490.43 420.762,1475.26C411.045,1452.34 423.35,1425.25 432.869,1412.34C436.754,1407.07 440.57,1404.09 442.418,1403.48L444.088,1403.14L445.598,1403.21L447.047,1403.65L448.441,1404.51C450.77,1406.44 451.094,1409.9 449.164,1412.23C448.306,1413.26 447.147,1413.9 445.919,1414.12Z" style="fill:white;fill-opacity:0.44;"/>
        <path d="M587.117,1381.04C589.11,1381.37 591.761,1381.8 594.193,1382.11C619.85,1385.46 674.381,1394.46 697.127,1474.73C699.259,1482.25 702.143,1562.9 720.281,1606.47C723.08,1613.19 726.23,1618.98 729.87,1623.33C732.957,1627.01 736.336,1629.62 740.24,1630.49C744.08,1631.34 748.308,1630.42 753.055,1627.71C758.782,1624.44 765.032,1618.73 771.977,1610.21C777.957,1602.88 783.752,1588.21 791.057,1570.77C802.626,1543.15 817.578,1508.87 840.907,1483.68C847.422,1476.65 857.411,1465.16 952.693,1440.43C955.621,1439.67 958.615,1441.44 959.375,1444.36C960.134,1447.29 958.374,1450.29 955.446,1451.05C864.988,1474.52 855.134,1484.45 848.948,1491.13C826.507,1515.36 812.296,1548.44 801.167,1575C793.341,1593.69 786.879,1609.28 780.471,1617.14C763.549,1637.89 749.158,1643.69 737.864,1641.19C726.496,1638.66 717.075,1627.28 710.162,1610.68C691.851,1566.69 688.733,1485.31 686.582,1477.72C677.07,1444.15 661.626,1424.11 645.281,1412.04C620.577,1393.79 594.051,1393.64 583.814,1391.72C580.821,1391.16 578.741,1390.28 577.569,1389.39L575.816,1387.49L574.995,1385.58L574.814,1383.3L575.263,1381.37L576.15,1379.66C576.534,1379.08 577.051,1378.43 577.731,1377.73C579.839,1375.56 583.311,1375.51 585.48,1377.62C586.454,1378.56 587.001,1379.78 587.117,1381.04Z" style="fill:white;fill-opacity:0.44;"/>
        <path d="M815.333,1391.92C857.234,1364.9 904.748,1330.3 935.836,1320.99C953.305,1315.76 966.217,1318.38 972.501,1330.41C980.681,1346.07 973.342,1361.89 957.556,1375.94C925.473,1404.49 858.186,1426.42 856.063,1427.52C838.792,1436.52 822.268,1454.99 808.212,1470.33C798.112,1481.36 789.151,1490.84 782.113,1494.99C776.398,1498.37 771.391,1498.65 767.414,1496.39C763.997,1494.45 760.775,1490.02 759.096,1481.65C755.211,1462.29 761.97,1444.62 772.16,1430.15C786.755,1409.42 808.295,1395.44 812.379,1392.8C813.293,1392.2 814.319,1391.92 815.333,1391.92ZM809.034,1408.49C801.041,1414.51 789.756,1424.2 781.122,1436.46C772.59,1448.58 766.589,1463.28 769.843,1479.5C770.362,1482.08 770.983,1484.09 771.798,1485.56C772.136,1486.17 772.405,1486.67 772.857,1486.87C773.623,1487.21 774.445,1486.65 775.474,1486.14C777.882,1484.94 780.544,1482.83 783.486,1480.16C800.677,1464.53 825.207,1431.23 851.002,1417.8C853.075,1416.72 918.941,1395.63 950.269,1367.75C961.67,1357.6 968.694,1346.79 962.785,1335.48C958.779,1327.81 950.12,1328.16 938.98,1331.49C905.954,1341.38 854.19,1380.65 810.829,1407.77C810.261,1408.12 809.653,1408.36 809.034,1408.49Z" style="fill:white;fill-opacity:0.44;"/>
        <path d="M154.362,1780.21C154.225,1777.19 156.567,1774.63 159.589,1774.49C162.611,1774.35 165.175,1776.69 165.312,1779.72C168.341,1846.49 212.505,1937.74 272.701,1994.47C312.091,2031.59 358.374,2054.04 404.626,2043.81C413.058,2041.94 421.108,2036.8 429.264,2029.8C442.484,2018.45 455.785,2002.27 470.521,1985.63C509.051,1942.12 557.056,1896.02 635.504,1916.84C649.318,1920.5 667.712,1927.09 687.428,1930.33C706.228,1933.42 726.3,1933.49 744.495,1924.31C769.15,1911.87 789.891,1882.69 800.317,1823.09C800.838,1820.11 803.68,1818.11 806.66,1818.63C809.639,1819.16 811.635,1822 811.114,1824.98C799.809,1889.61 776.167,1920.61 749.432,1934.1C729.085,1944.36 706.674,1944.6 685.651,1941.14C665.546,1937.84 646.778,1931.17 632.692,1927.43C559.267,1907.94 514.79,1952.17 478.727,1992.9C463.626,2009.95 449.952,2026.48 436.404,2038.12C426.715,2046.44 417.011,2052.3 406.994,2054.51C357.387,2065.49 307.43,2042.26 265.184,2002.45C202.925,1943.77 157.495,1849.28 154.362,1780.21Z" style="fill:white;fill-opacity:0.44;"/>
        <path d="M285.03,1705C284.184,1702.1 285.855,1699.05 288.759,1698.21C291.663,1697.36 294.707,1699.03 295.553,1701.94C308.958,1747.95 324.988,1821.02 352.379,1863.05C362.527,1878.62 374.106,1889.88 388.082,1892.83C397.118,1894.73 407.058,1893.03 418.104,1887.03C426.002,1882.73 442.734,1867.83 462.662,1852.72C483.471,1836.95 507.639,1821.04 529.063,1815.52C554.498,1808.97 567.835,1809.4 580.938,1808.91C593.249,1808.46 605.328,1807.07 628.335,1797.37C631.123,1796.2 634.339,1797.51 635.515,1800.29C636.69,1803.08 635.381,1806.3 632.594,1807.47C607.727,1817.96 594.652,1819.37 581.346,1819.87C568.832,1820.33 556.088,1819.88 531.796,1826.13C511.586,1831.34 488.914,1846.58 469.283,1861.46C448.772,1877 431.466,1892.24 423.338,1896.66C409.557,1904.14 397.091,1905.93 385.819,1903.55C369.331,1900.07 355.168,1887.4 343.196,1869.03C315.292,1826.21 298.685,1751.88 285.03,1705Z" style="fill:white;fill-opacity:0.44;"/>
        <path d="M313.149,1582.11C310.722,1580.3 310.217,1576.87 312.022,1574.44C313.827,1572.01 317.263,1571.51 319.69,1573.31C369.37,1610.26 390.755,1649.58 409.783,1678.04C420.35,1693.84 429.958,1706.2 444.217,1712.04C453.558,1715.87 464.853,1716.81 479.602,1714.35C490.651,1712.5 500.393,1705.49 509.88,1696.69C520.162,1687.15 530.05,1675.46 540.475,1664.91C563.041,1642.06 588.1,1624.72 623.195,1639.83C625.973,1641.03 627.257,1644.26 626.061,1647.04C624.865,1649.81 621.638,1651.1 618.86,1649.9C588.753,1636.93 567.631,1653.01 548.273,1672.61C535.557,1685.49 523.595,1699.99 510.819,1710.42C501.608,1717.94 491.941,1723.4 481.41,1725.16C464.167,1728.04 450.981,1726.66 440.06,1722.18C423.924,1715.57 412.63,1702.01 400.672,1684.13C382.157,1656.44 361.49,1618.06 313.149,1582.11Z" style="fill:white;fill-opacity:0.44;"/>
        <path d="M322.531,1406.58C322.504,1407.05 322.472,1407.98 322.583,1408.68C323.113,1412.06 324.885,1416.4 327.447,1421.47C344.718,1455.69 396.912,1518.67 410.053,1543.8C415.909,1555 424.715,1588.08 441.514,1608.9C451.398,1621.14 464.266,1628.91 481.576,1622.68C494.318,1618.09 498.922,1613.99 504.716,1602.68C511.278,1589.89 519.213,1568.97 539.126,1531.28C540.54,1528.6 543.858,1527.58 546.532,1528.99C549.207,1530.4 550.231,1533.72 548.818,1536.4C528.938,1574.02 521.021,1594.91 514.47,1607.69C507.152,1621.96 501.382,1627.2 485.288,1632.99C462.79,1641.09 445.831,1631.7 432.985,1615.78C415.688,1594.35 406.369,1560.41 400.34,1548.88C389.647,1528.43 352.975,1482.85 330.527,1448.25C320.318,1432.51 313.078,1418.81 311.754,1410.38C311.01,1405.64 311.947,1402.02 313.901,1399.57C315.96,1396.98 319.384,1395.19 324.793,1395.48C331.394,1395.83 342.481,1399.73 359.114,1408.76C361.772,1410.2 362.76,1413.53 361.317,1416.19C359.875,1418.85 356.545,1419.84 353.887,1418.39C342.064,1411.98 333.473,1408.28 327.496,1406.92C325.52,1406.48 323.296,1406.54 322.531,1406.58Z" style="fill:white;fill-opacity:0.44;"/>
        <path d="M355.205,1419.93C353.462,1419.81 351.807,1418.86 350.855,1417.24C349.321,1414.63 350.193,1411.27 352.8,1409.74L354.828,1408.9L357.418,1408.76L359.997,1409.65L362.053,1411.26C365.752,1414.85 374.303,1426.65 426.398,1425.44C429.422,1425.38 431.934,1427.77 432.004,1430.8C432.074,1433.82 429.675,1436.33 426.651,1436.4C371.327,1437.68 359.836,1424.8 355.205,1419.93Z" style="fill:white;fill-opacity:0.44;"/>
        <path d="M811.486,1823.49C811.363,1826.51 808.808,1828.86 805.786,1828.74C802.764,1828.61 800.411,1826.06 800.535,1823.04C801.119,1808.78 801.171,1808.93 800.717,1794.76C800.62,1791.74 802.995,1789.2 806.019,1789.11C809.042,1789.01 811.575,1791.39 811.672,1794.41C812.139,1808.98 812.087,1808.82 811.486,1823.49Z" style="fill:white;fill-opacity:0.44;"/>
        <path d="M1010.22,2210.53C1013.14,2211.28 1014.91,2214.27 1014.16,2217.2C1013.41,2220.13 1010.42,2221.9 1007.49,2221.15C981.373,2214.45 955.74,2183.71 940.816,2144.07C918.751,2085.47 919.875,2008.2 973.64,1965.35C1011.32,1935.32 1031.1,1914.95 1041.5,1893.47C1049.18,1877.59 1051.64,1861.16 1052.73,1839.85C1053.86,1817.68 1053.47,1790.42 1055.36,1753.52C1056.78,1725.76 1065.06,1705.13 1077.37,1689.87C1095.78,1667.05 1123.38,1656.15 1151.54,1651.84C1197.14,1644.85 1243.99,1655.1 1252.41,1656.95C1255.37,1657.6 1257.24,1660.52 1256.59,1663.48C1255.94,1666.43 1253.02,1668.3 1250.06,1667.65C1241.97,1665.88 1196.99,1655.96 1153.2,1662.67C1127.72,1666.58 1102.56,1676.1 1085.9,1696.76C1074.83,1710.48 1067.58,1729.11 1066.3,1754.08C1062.47,1828.99 1067.57,1864.74 1051.36,1898.24C1040.46,1920.77 1020,1942.42 980.472,1973.92C930.507,2013.74 930.569,2085.75 951.073,2140.21C964.529,2175.95 986.665,2204.49 1010.22,2210.53Z" style="fill:white;fill-opacity:0.44;"/>
        <path d="M1262.53,1728.97C1265.53,1729.35 1267.65,1732.1 1267.27,1735.1C1266.89,1738.1 1264.14,1740.22 1261.14,1739.84C1226.46,1735.41 1204.33,1740.62 1190.41,1752.31C1180.24,1760.85 1174.64,1772.76 1171.51,1786.25C1168.19,1800.55 1167.67,1816.59 1167.88,1832.62C1168.18,1854.8 1169.89,1876.95 1168.24,1894.76C1167.03,1907.79 1163.93,1918.62 1157.84,1926C1127.21,1963.07 1110.76,1990.5 1104.96,2014.7C1098.34,2042.29 1105.93,2065.4 1121.22,2093.83C1137.26,2123.65 1161.65,2158.98 1188.14,2209.97C1189.53,2212.66 1188.48,2215.97 1185.8,2217.36C1183.12,2218.76 1179.8,2217.71 1178.41,2215.03C1151.96,2164.1 1127.59,2128.8 1111.57,2099.02C1094.81,2067.85 1087.04,2042.39 1094.3,2012.15C1100.38,1986.79 1117.3,1957.86 1149.39,1919.02C1155.64,1911.45 1157.38,1899.27 1157.87,1884.91C1158.68,1861.14 1155.5,1831.73 1157.66,1805.08C1159.58,1781.47 1165.76,1760.02 1181.37,1745.66C1196.88,1731.4 1221.95,1723.79 1262.53,1728.97Z" style="fill:white;fill-opacity:0.44;"/>
        <path d="M1252.38,2101.93C1253.97,2104.51 1253.17,2107.89 1250.59,2109.47C1248.02,2111.06 1244.64,2110.26 1243.05,2107.68C1212.47,2058.03 1194.93,2029.06 1194.18,2001.47C1193.43,1973.59 1209.48,1946.64 1247.98,1901.37C1249.94,1899.07 1253.4,1898.79 1255.7,1900.75C1258.01,1902.71 1258.29,1906.17 1256.33,1908.47C1220.45,1950.66 1204.44,1975.2 1205.14,2001.17C1205.85,2027.44 1223.27,2054.68 1252.38,2101.93Z" style="fill:white;fill-opacity:0.44;"/>
        <path d="M743.849,1924.04C745.783,1921.71 749.241,1921.39 751.567,1923.33C753.893,1925.26 754.211,1928.72 752.277,1931.04C740.826,1944.82 736.442,1956.85 737.298,1967.5C738.584,1983.5 751.445,1995.79 766.928,2005.4C794.688,2022.61 831.52,2030.81 836.873,2032.01C866.09,2038.54 882.363,2056.93 897.545,2071.81C910.605,2084.61 922.703,2094.64 944.575,2087.43C947.447,2086.48 950.548,2088.04 951.496,2090.91C952.444,2093.78 950.882,2096.89 948.009,2097.84C921.122,2106.71 905.928,2095.37 889.874,2079.64C875.944,2065.99 861.288,2048.7 834.48,2042.7C828.866,2041.45 790.267,2032.77 761.15,2014.71C742.505,2003.15 727.921,1987.65 726.372,1968.38C725.337,1955.5 730.001,1940.69 743.849,1924.04Z" style="fill:white;fill-opacity:0.44;"/>
        <path d="M953.593,1644.98C990.324,1626.52 1014.26,1621.64 1029.52,1623.09C1047.96,1624.84 1055.44,1635.17 1057.98,1644.77C1059.54,1650.63 1059.14,1656.34 1058.13,1660C1057.5,1662.29 1056.55,1663.96 1055.7,1664.93C985.072,1745.58 997.922,1752.51 974.003,1857.06C966.835,1888.38 945.809,1913.91 925.647,1925.53C910.519,1934.25 895.734,1935.03 886.244,1927.04C882.058,1923.51 878.741,1918.22 876.933,1910.8C874.571,1901.1 874.773,1887.37 878.993,1868.95C889.673,1822.34 889.118,1791.64 889.747,1765.93C890.729,1725.83 894.306,1697.36 944.158,1642.37C946.19,1640.13 949.658,1639.96 951.899,1641.99C952.806,1642.81 953.373,1643.87 953.593,1644.98ZM947.684,1654.88C905.006,1703.42 901.6,1729.63 900.705,1766.2C900.062,1792.45 900.583,1823.8 889.677,1871.4C886.556,1885.02 885.747,1895.75 886.801,1903.92C887.696,1910.87 889.87,1915.76 893.305,1918.66C899.802,1924.13 909.817,1922 920.175,1916.03C938.228,1905.63 956.9,1882.66 963.318,1854.61C987.829,1747.47 975.038,1740.44 1047.27,1657.93C1047.37,1657.59 1047.88,1655.89 1047.99,1654.59C1048.3,1651.12 1047.76,1646.47 1045.14,1642.46C1041.69,1637.16 1034.68,1633.39 1022.13,1633.85C1007.34,1634.39 985.844,1640.65 954.749,1656.69C952.249,1657.98 949.212,1657.16 947.684,1654.88Z" style="fill:white;fill-opacity:0.44;"/>
        <path d="M683.982,2018.92C686.862,2019.84 688.453,2022.92 687.531,2025.81C686.609,2028.69 683.521,2030.28 680.641,2029.36C593.153,2001.36 538.246,2034.2 519.882,2072.57C508.452,2096.45 511.347,2122.35 530.977,2134.19C572.371,2159.14 605.25,2151.93 640.533,2144.47C668.632,2138.54 698.188,2132.39 734.106,2139.85C769.844,2147.27 812.004,2168.19 865.301,2216.87C867.535,2218.91 867.692,2222.38 865.652,2224.61C863.612,2226.85 860.143,2227 857.909,2224.96C806.639,2178.13 766.255,2157.72 731.878,2150.58C697.681,2143.48 669.552,2149.55 642.799,2155.2C604.946,2163.2 569.728,2170.34 525.319,2143.57C506.948,2132.5 499.526,2111.76 503.122,2089.45C510.964,2040.81 572.864,1983.35 683.982,2018.92Z" style="fill:white;fill-opacity:0.44;"/>
        <path d="M676.513,2024.63C674.72,2022.19 675.243,2018.76 677.68,2016.97C680.116,2015.17 683.55,2015.7 685.342,2018.13C695.685,2032.19 712.445,2036.6 729.154,2037.01C755.846,2037.66 782.719,2027.99 787.477,2026.28C790.324,2025.26 793.465,2026.75 794.485,2029.59C795.505,2032.44 794.021,2035.58 791.174,2036.6C786.094,2038.42 757.385,2048.66 728.886,2047.97C708.802,2047.47 688.944,2041.53 676.513,2024.63Z" style="fill:white;fill-opacity:0.44;"/>
        <path d="M601.47,2065.27C601.444,2065.2 601.42,2065.14 601.396,2065.08C600.345,2062.24 601.794,2059.09 604.631,2058.03C635.346,2046.65 653.784,2058.17 659.054,2072.78C664.469,2087.8 656.685,2107.99 632.565,2115.12C622.707,2118.04 609.903,2116.01 600.167,2110.74C593.206,2106.97 587.874,2101.56 585.719,2095.48C582.663,2086.85 585.351,2075.67 601.47,2065.27ZM617.466,2065.6C617.469,2067.62 616.354,2069.56 614.429,2070.52C605.874,2074.78 600.462,2079.01 597.619,2083.22C595.561,2086.27 595.117,2089.18 596.051,2091.82C597.401,2095.63 601.024,2098.74 605.384,2101.1C612.629,2105.02 622.121,2106.78 629.456,2104.61C648.993,2098.84 654.493,2081.35 645.652,2071.27C640.444,2065.33 630.901,2062.57 617.466,2065.6Z" style="fill:white;fill-opacity:0.44;"/>
        <path d="M-65.553,2108.43C-68.307,2109.68 -71.558,2108.46 -72.81,2105.71C-74.062,2102.96 -72.842,2099.7 -70.089,2098.45C-58.432,2093.15 3.158,2061.64 49.519,2059.71C71.244,2058.81 89.706,2064.41 99.736,2080.29C108.011,2093.39 108.504,2108.34 109.601,2122.36C110.423,2132.87 111.471,2142.84 118.834,2150.25C123.777,2155.23 131.471,2158.94 143.362,2161.22C173.51,2167.01 189.858,2170.04 202.198,2178.26C214.673,2186.58 223.293,2200.18 237.294,2227.94C238.656,2230.64 237.569,2233.94 234.868,2235.3C232.168,2236.66 228.869,2235.58 227.507,2232.88C214.785,2207.65 207.456,2194.94 196.12,2187.38C184.649,2179.74 169.324,2177.37 141.297,2171.99C125.902,2169.03 116.373,2163.71 110.259,2157.15C103.972,2150.4 101.167,2142.23 99.775,2133.3C98.545,2125.4 98.443,2116.87 97.433,2108.37C96.525,2100.74 94.871,2093.11 90.469,2086.14C85.282,2077.93 77.027,2073.58 67.164,2071.71C56.329,2069.66 43.636,2070.54 30.493,2073.01C-10.592,2080.74 -55.852,2104.02 -65.553,2108.43Z" style="fill:white;fill-opacity:0.44;"/>
        <path d="M81.944,1856.36C82.757,1856.37 83.58,1856.56 84.353,1856.95C99.684,1864.76 114.233,1870.3 126.252,1876.93C145.907,1887.78 159.255,1901.41 160.032,1930.17C160.369,1942.62 163.412,1964.82 160.293,1983.32C158.188,1995.8 153.253,2006.62 143.896,2012.83C137.588,2017.02 129.193,2019.24 117.982,2018.16C107.757,2017.17 101.284,2014.54 96.942,2010.91C92.315,2007.04 89.882,2001.94 88.405,1995.62C84.991,1981.02 87.353,1958.46 62.518,1932.05C46.179,1914.67 48.451,1895.68 55.304,1880.77C61.942,1866.32 73.02,1855.97 74.348,1855.04C76.814,1853.32 80.204,1853.92 81.944,1856.36ZM78.433,1866.11C75.217,1869.47 69.31,1876.54 65.263,1885.35C60.03,1896.73 58.026,1911.27 70.503,1924.54C93.174,1948.65 95.448,1969.7 97.71,1985.32C98.774,1992.67 99.382,1998.66 103.976,2002.5C107.056,2005.08 111.779,2006.55 119.033,2007.25C127.141,2008.03 133.272,2006.73 137.834,2003.7C144.783,1999.08 147.921,1990.77 149.485,1981.49C152.479,1963.74 149.398,1942.42 149.075,1930.47C148.432,1906.67 137.216,1895.51 120.955,1886.53C109.029,1879.95 94.588,1874.47 79.377,1866.72C79.036,1866.55 78.72,1866.34 78.433,1866.11Z" style="fill:white;fill-opacity:0.44;"/>
        <path d="M93.351,2084.89C90.485,2083.92 88.942,2080.81 89.909,2077.94C90.875,2075.08 93.987,2073.53 96.853,2074.5C129.586,2085.54 146.053,2073.8 161.175,2067.35C173.42,2062.12 184.918,2059.71 201.029,2069.84C203.754,2071.55 207.122,2075.12 210.949,2079.98C218.593,2089.69 228.819,2105.02 241.856,2117.76C259.152,2134.67 281.651,2147.08 309.993,2132.18C323.359,2125.15 330.775,2117.8 334.373,2109.86C337.919,2102.03 337.708,2093.76 336.464,2085.16C334.566,2072.05 330.31,2058.22 330.14,2043.86C330.104,2040.84 332.53,2038.35 335.555,2038.32C338.579,2038.28 341.064,2040.71 341.1,2043.73C341.264,2057.59 345.479,2070.93 347.311,2083.59C348.864,2094.33 348.783,2104.61 344.358,2114.38C339.986,2124.03 331.332,2133.34 315.094,2141.88C281.513,2159.54 254.688,2145.63 234.194,2125.6C222.643,2114.31 213.187,2101.09 205.751,2091.21C201.418,2085.46 198.008,2080.88 195.198,2079.12C179.74,2069.41 169.832,2075.38 157.406,2081.1C142.326,2088.03 124.217,2095.3 93.351,2084.89Z" style="fill:white;fill-opacity:0.44;"/>
        <path d="M346.273,2243.95C344.289,2246.24 340.825,2246.48 338.542,2244.49C336.258,2242.51 336.015,2239.05 337.999,2236.76C351.005,2221.8 380.494,2182.2 411.852,2159.4C434.601,2142.87 458.441,2135.42 478.382,2148.59C502.397,2164.44 507.712,2190.09 507.391,2215.29C507.21,2229.45 505.275,2243.41 504.368,2255.01C503.821,2262.02 503.604,2268.08 504.645,2272.62C505.322,2275.57 503.477,2278.52 500.529,2279.19C497.581,2279.87 494.638,2278.02 493.962,2275.08C491.05,2262.38 496.126,2239.06 496.431,2215.15C496.706,2193.58 492.901,2171.3 472.343,2157.73C456.053,2146.98 436.881,2154.76 418.297,2168.27C387.665,2190.54 358.978,2229.33 346.273,2243.95Z" style="fill:white;fill-opacity:0.44;"/>
    </g>
</svg>
